<?xml version="1.0" encoding="UTF-8"?>
<svg id="Layer_2" data-name="Layer 2" xmlns="http://www.w3.org/2000/svg" viewBox="0 0 622.02 621.58">
  <defs>
    <style>
      .cls-1 {
        fill: #010101;
      }

      .cls-2 {
        fill: #cbc9c9;
      }

      .cls-3 {
        fill: #dbdbda;
      }

      .cls-4 {
        fill: #efeded;
      }

      .cls-5 {
        fill: #f2f1f1;
      }

      .cls-6 {
        fill: #bdbbbb;
      }

      .cls-7 {
        fill: #f4f4f4;
      }

      .cls-8 {
        fill: #d2d1d0;
      }

      .cls-9 {
        fill: #ebeae9;
      }

      .cls-10 {
        fill: #e6e5e5;
      }

      .cls-11 {
        fill: #f7f8f8;
      }

      .cls-12 {
        fill: #fafafa;
      }

      .cls-13 {
        fill: #3c2569;
      }

      .cls-14 {
        fill: #fcfdfd;
      }

      .cls-15 {
        fill: #f7f7f7;
      }

      .cls-16 {
        fill: #fdfdfd;
      }
    </style>
  </defs>
  <g id="Layer_1-2" data-name="Layer 1">
    <g>
      <path class="cls-6" d="M51.03,480.93c-1.31-.75-1.99-2.2-2.4-3.6,1.68.28,2.04,2.22,2.4,3.6Z"/>
      <path class="cls-6" d="M55.83,488.12c-.44-.55-1.5-.76-1.2-1.8.33.12.99,0,1.12.41.17.52.12.98.08,1.39Z"/>
      <path class="cls-6" d="M58.83,492.32c-.77-.27-1.24-.98-1.2-1.8.4.09.96-.01,1.12.41.19.51.13.97.08,1.39Z"/>
      <path class="cls-6" d="M62.43,497.11c-.8-.23-1.23-.99-1.2-1.8.37.15.97-.06,1.12.41.16.52.13.97.08,1.39Z"/>
      <path class="cls-6" d="M81.63,520.49c-.5-.53-1.46-.77-1.2-1.8.3.2,1-.09,1.13.41.13.52.14.97.07,1.39Z"/>
      <path class="cls-6" d="M64.23,499.51c-.32-.54-1.59-.77-1.2-1.8.42-.02.95.08,1.1.42.22.49.14.97.1,1.38Z"/>
      <path class="cls-2" d="M560.99,494.64c0,.26-.39.6-.62.65-1.78.36-2.95,2.38-2.97,4.14-.21.17-.33.57-.57.69l-.86.07c-.37.03-.45.44-.35.8.06.2.29.42.61.34-3.63,4.97-7.73,9.64-11.91,14.47l-3.9,4.51-20.44,20.27c-48.9,48.48-115.77,75.04-184.6,79.84l-8.94.62c-10.47.73-20.74.73-31.21,0l-8.94-.62c-68.83-4.79-133.61-33.45-184.59-79.85-7.1-6.47-13.62-13.26-20.06-20.06.06-.42.06-.87-.07-1.39s-.83-.21-1.13-.41c-3.16-2.16-14.03-15.54-16.2-19.18.04-.41.12-.89-.1-1.38-.15-.34-.68-.44-1.1-.42l-.6-.6c.05-.42.08-.87-.08-1.39-.15-.47-.75-.26-1.12-.41-1.27-.51-1.88-1.8-2.4-3,.04-.42.1-.88-.08-1.39-.15-.42-.71-.32-1.12-.41-1.16-.25-1.19-1.63-1.8-2.4.05-.42.09-.87-.08-1.39-.13-.41-.79-.29-1.12-.41-1.46-1.3-3.09-3.42-3.6-5.4-.36-1.37-.72-3.32-2.4-3.6-.13-.45-.65-.76-.6-1.35.05-.55.1-1.7-.43-2.31-1.97-2.29-5.85-9.16-7.27-11.97l-7.25-14.29c-8.94-17.61-19.65-47.82-23.35-67.19l-3.77-19.76c-.5-2.6-1.79-16.31-1.94-19.19l-.55-10.21-.61-9c-.27-3.99-.35-10.44-.26-14.39l.17-7.23c.14-5.76.67-10.91,1.28-16.8,2.31-22.16,6.64-43.85,13.66-64.97,1.82-5.47,3.85-10.1,4.84-15.81.86-4.95,7.65-15.6,10.1-22.19,1.93-5.19,4.87-9.78,7.27-14.72,3.4-6.98,7.32-13.04,11.59-19.6,9.04-13.92,18.87-26.76,29.79-39.23,2.58-2.95,5.51-5.28,7.85-8.31,1.34-1.74,2.73-2.64,4.3-4.18,14.71-14.41,30.2-27.55,47.55-38.74,8.51-5.49,16.49-10.7,25.52-15.21l15.55-7.77c7.42-3.71,14.67-6.22,22.45-9.06,20.38-7.42,41.07-12.63,62.45-15.8,2.36-.78,4.82-1.06,7.27-1.2l10.16-.56c2.62-.14,4.87-1.03,7.34-1.05l35.25-.34c2.1-.02,3.66.61,5.53.94,3.77.67,7.31.03,11.22.48,26.67,3.08,52.68,9.04,77.64,18.89,1.93.76,2.86,2.02,5.19,2.19,1.17.09,3.19.89,4.22,1.6,2.96,2.04,5.97,2.88,9.16,4.1,8.55,3.26,31.76,17.41,40.48,23,15.87,10.17,29.84,22.1,43.69,34.83l10.66,9.8c2.23,2.05,3.86,4.47,6.78,5.88,11.05,13.26,21.8,26.27,30.82,41.15,10.29,16.97,19.07,34.29,26.25,52.72,7.16,18.39,18.21,56.71,18.87,74.7l.3,8.08c.1,2.66.42,5.46.78,8.27,1.01,7.75,1.08,15.28.88,23.02l-.45,16.94-1.98,18.41-1.62,12.79-3.96,20.04c-5.47,27.67-22.76,68.18-37.97,92.16l-5.14,8.11-4.35,6.38c-1.2,1.76-3.02,3.18-3.01,5.27ZM522.5,533.07c1.64-2.97,4.4-4.74,6.69-7.13.35,2.1,10.37-8.83,10.69-9.21l15.12-18.54c6.67-8.19,25.41-35.54,27.14-44.31.17-.28.39-.78.49-1.1.32-.02.95-.07,1.21-.59l4.63-9.27c.21-.41.08-1.21-.42-1.09.45-.74.84-1.95,1.17-2.78,1.47-.24,2.73-2.54,1.92-3.79.24-.2.26-.8.6-1.01,1.84-1.14,3.2-4.22,2.31-6.2.22-.47.4-1.1.57-1.6,1.19,1.59,4.71-9.6,5.49-11.53,1.23-3.03,2.13-5.92,2.25-8.97.03-.75.15-1.53.1-2.27,2.17-1.21,2.28-4.43,2.27-6.74l.73-2.84c.11-.42.67-.87.49-1.43-.1-.29.09-.65.04-.96,1.57-3.65,2.48-7.65,2.96-11.63.04-.31.03-.64.04-.96,3.58-11.27,5.28-23.12,6.33-35.23.14-1.66.81-3.26-.31-4.42l.1-1.09c.76,5.29,1.67-11.6,1.63-9.18l.24-12.55c.08-4.31.56-8.24.03-12.58-.13-1.08-.15-11.96-1.93-10.32-.02-.51.05-1.06-.03-1.57,1.55.39-.82-17.67-1.11-19.34-2.13-12.04-4.01-23.68-7.07-35.54-4.66-18.08-12.5-41.61-20.87-58.19l-7.42-14.73c-3.76-7.45-8.23-13.98-12.61-21.02-4.09-6.58-8.86-12.18-13.52-18.36-7.19-9.56-14.85-18.04-23.26-26.52l-6.01-6.06c-12.61-12.71-27.95-24.35-43.06-34.3-45.75-30.14-98.39-47.74-153.2-50.5-58-2.91-109.27,9.22-160.5,35.85-10.45,5.43-19.68,11.63-29.67,17.8-9.24,5.7-17.52,12.15-25.66,19.3l-4.75,4.17c-1.91,1.68-3.48,3.19-5.21,5.06-7.6,8.22-13.22,12.44-20.6,20.78l-4.52,5.1-18.4,24.14c-9.01,11.82-26.32,45.45-31.13,59.29l-7.92,22.8c-4.31,12.41-6.78,24.82-9.13,37.74-1.2,6.6-2.88,12.71-3.08,19.51-.07,2.58-1.03,5.03-1.12,7.55l-.61,17.9c-.41,12.07.67,34.45,2.51,46.18l1.47,9.37c2.79,17.74,7.06,34.8,12.9,51.79.77,2.24.27,4.47,1.47,6.53,2.82,4.88,3.68,10.54,6.07,15.5l8.57,17.72c7.98,16.5,17.54,31.61,28.76,46.08,5.01,6.46,9.64,12.55,15.25,18.52,7.81,8.3,15.57,16.22,23.97,23.94,6.4,5.88,13.06,10.92,19.93,16.08l8.93,6.72c20.35,15.31,57.59,33.58,82.13,40.76l16.35,4.78c20.35,5.95,41,8.75,62.24,9.72,10.28.47,19.78.25,30.01-.06l8.71-.27c11.86-.36,23.55-2.55,35.2-5.13l15.81-3.51c23.6-5.24,45.49-14.35,66.93-25.03,3.96-1.97,7.26-3.81,10.91-6.03l15.39-9.33c8.01-4.86,40.81-29.5,44.36-35.9Z"/>
      <path class="cls-6" d="M560.37,495.29c-.28,1.68-1.68,3.08-2.97,4.14.01-1.76,1.19-3.78,2.97-4.14Z"/>
      <path class="cls-6" d="M556.83,500.11c.06.53-.33.83-.6,1.2-.32.09-.55-.13-.61-.34-.1-.35-.01-.77.35-.8l.86-.07Z"/>
      <path class="cls-3" d="M615.08,292.22c.08.51,0,1.05.03,1.57.12,2.65-.47,5.52.09,8.36.89,4.49.18,8.83.09,13.29-.04,1.96-.28,24.35-.16,22.98l-.1,1.09c-1.39,1.48-1.15,3.76-1.35,5.93l-.55,5.98c-.88,9.56-3.8,18.61-4.12,27.73-.01.32,0,.64-.04.96-.16-.28-.81-.11-.91.3l-2.56,10.12c-.14.54.35.98.51,1.21.05.31-.14.66-.04.96-.3-.27-.55-.11-.84.1-.27.2-.43.42-.3.89.07.25.27.6.66.44l-.73,2.84c-1.54-.24-2.36,5.53-2.27,6.74.05.75-.07,1.53-.1,2.27-.69-.2-.97.31-1.23,1.07l-6.52,19.42c-.17.5-.34,1.13-.57,1.6-.94,2-2.52,3.93-2.31,6.2-.34.21-.36.8-.6,1.01-1.37.87-1.38,2.47-1.92,3.79-.34.83-.73,2.04-1.17,2.78-2.1,3.46-4.12,7.1-5.42,10.94-.11.31-.32.82-.49,1.1l-18.86,30.54c-9.56,15.47-21.66,28.59-34.08,41.52-2.29,2.38-5.05,4.16-6.69,7.13-50.04,46.06-123.81,81.08-192.67,83.12l-14.75.44c-3.01.09-5.51.1-8.54.01l-14.82-.42c-13.87-.39-49.43-6.19-62.68-10.37l-21.54-6.79c-15.44-4.87-29.53-12.13-43.7-19.89l-11.64-6.37c-3.82-2.09-7.07-4.74-10.75-7.2-9.66-6.47-19.3-12.79-27.8-20.62-6.08-5.6-12.24-10.49-17.87-16.42l-16.34-17.2c-8.73-9.19-25.69-32.07-31.23-43.03l-4.86-9.63-2.91-5.64c-3.74-7.25-6.75-14.6-10.19-22-2.77-5.96-4.42-12.02-6.49-18.2l-3.76-11.28c-2.49-7.45-6.56-24.8-7.8-32.75l-2.26-14.44-1.31-7.72-.57-8.99-.67-7.2-.23-11.94c-.04-2.16-.87-4.1.05-6.24.75-1.73-.52-3.54-.38-5.25l.55-6.52c.21-2.49.44-4.73.52-7.28.16-5.22,1.25-10.27,1.83-15.43,2.3-20.15,7.69-42.59,14.13-61.94,2.41-7.25,5.07-13.95,7.84-21.03,1.07-2.73,1.65-5.47,3.24-8.07,2.61-4.28,4.29-8.92,6.56-13.32l4.52-8.77c6.94-13.45,25.1-38.95,35.1-49.28l5.93-6.13,14.85-15.12c2.79-2.84,5.74-4.95,8.68-7.57l3.82-3.4c7.71-6.87,15.86-12.88,24.31-18.86,1.06-.75,2.2-.58,2.97-1.07-.25.94-1.14,1.44-2.04,2.1l-9.27,6.85-4.52,4.43c-5.64,5.53-12.4,9.47-17.34,15.64-8,6.26-13.86,14.14-20.43,21.62-2.37,2.7-4.18,5.34-6.26,8.28l-15.58,21.97c-3.05,4.3-7.41,7.32-11.94,15.8-2.86,5.36-5.74,10.61-8.35,16.07l-6.63,13.92c-.84,1.76-.35,4.05-1.81,5.83-2.63,3.19-3.26,7.25-4.75,10.92-2.53,6.23-4.59,12.22-6.5,18.7l-6.29,21.26c-1.31,4.42-2.79,8.51-3.72,13.08l-3.78,18.55c-.63,3.12-1.22,5.81-1.64,9.11l-1.11,8.77c.31-2.43-.06,8.22-.14,8.42-.81,2.07-.21,3.63-.17,5.64l.36,16.05c.05,2.47.32,4.75.57,7.26l1.12,11.37c1.36,13.8,4.3,32.44,8.26,45.58l7.4,24.52c2.09,6.92,4.67,13.31,7.52,19.96,7.28,16.97,15.52,33.04,26.2,48.1,7.32,10.32,14.43,20.01,22.88,29.46,5.52,6.18,11.59,11.42,16.61,18.06,1.62,2.14,4,3.25,5.95,4.85l21.7,17.91c6.25,5.16,12.72,9.11,19.58,13.51,32.46,20.8,63.31,32.76,101.01,41.21,15.85,3.55,31.59,5.28,47.86,6.19,33.39,1.87,67.92-2.9,100-11.75,3.91-1.08,6.98-2.36,11.2-2.8,28.62-10.66,57-23.36,80.96-42.25l15.91-12.55c2.93-2.31,5.41-4.88,8.58-7.04,1.1-.75,13.68-12.24,13.18-13.75,1.58-.45,2.26-2.82,3.53-3.49,5.42-2.83,10.25-9.51,13.98-13.91,12.79-15.08,28.3-36.84,36.24-54.96,3.7-8.44,8.6-16.12,11.45-24.88l3.42-10.51c2.15-6.6,4.55-12.74,6.23-19.51l4.73-19.12,2.97-16.97,3.44-29.08c.33-2.78.47-5.16.26-7.82-.34-4.3,1.43-11.93.82-17.46-2.02-18.57-4.94-36.95-10.5-54.83l-5.02-16.14-3.98-13.18c-.69-2.28-1.21-4.75-2.05-6.91l-5.52-14.26-4.65-10.39c-.42-.94-.11-2.51-.75-3.33-3.15-4.01-4.22-8.98-6.74-13.21-8.88-14.92-2.88-9.54-14.95-25.08l-7.15-9.21-14.65-19.41c-4.49-5.95-2.62-4.86-9.22-12.45-4.7-5.41-9-10.8-14.58-15.41-4.35-3.6-7.6-8.42-12.37-11.5-3.32-2.14-5.74-4.5-8.57-7.17-5.1-4.81-21-15.84-27.29-19.57l-12.75-7.56c-4.64-2.75-8.97-5.55-14.03-7.54-.56-.22-.79-.84-.65-1.16,24.05,9.29,49.64,26.94,69.94,43.41l5.66,4.59,6.83,6.4c2.79,2.61,6,5.27,8.33,8.29,2.46,3.19,5.28,5.37,8,8.34,11.47,12.55,21.5,26.08,31.01,40.19,2.75,4.08,5.16,7.69,7.31,12l11.16,22.33c5.91,11.83,10.9,23.9,14.3,36.67l3.8,14.29c5.11,19.2,7.95,38.39,10.84,57.66Z"/>
      <path class="cls-8" d="M529.2,525.94c12.42-12.93,24.53-26.04,34.08-41.52l18.86-30.54c-1.74,8.76-20.47,36.12-27.14,44.31l-15.12,18.54c-.31.38-10.34,11.32-10.69,9.21Z"/>
      <path class="cls-8" d="M615.14,338.41c-.12,1.37.11-21.02.16-22.98.09-4.46.8-8.8-.09-13.29-.56-2.84.03-5.7-.09-8.36,1.77-1.65,1.79,9.24,1.93,10.32.53,4.34.05,8.27-.03,12.58l-.24,12.55c.05-2.42-.87,14.47-1.63,9.18Z"/>
      <path class="cls-8" d="M609.01,379.15c.31-9.12,3.23-18.17,4.12-27.73l.55-5.98c.2-2.17-.04-4.45,1.35-5.93,1.12,1.16.45,2.76.31,4.42-1.05,12.11-2.75,23.96-6.33,35.23Z"/>
      <path class="cls-8" d="M602.38,405.98c-.12,3.05-1.03,5.94-2.25,8.97-.78,1.92-4.3,13.11-5.49,11.53l6.52-19.42c.26-.76.54-1.27,1.23-1.07Z"/>
      <path class="cls-8" d="M582.64,452.79c1.3-3.84,3.32-7.48,5.42-10.94.49-.12.62.67.42,1.09l-4.63,9.27c-.26.52-.89.57-1.21.59Z"/>
      <path class="cls-8" d="M608.97,380.11c-.48,3.98-1.39,7.98-2.96,11.63-.16-.23-.65-.68-.51-1.21l2.56-10.12c.1-.41.76-.58.91-.3Z"/>
      <path class="cls-8" d="M604.75,396.96c.01,2.31-.1,5.53-2.27,6.74-.09-1.21.73-6.98,2.27-6.74Z"/>
      <path class="cls-8" d="M591.75,434.27c-.21-2.27,1.37-4.2,2.31-6.2.89,1.98-.47,5.06-2.31,6.2Z"/>
      <path class="cls-8" d="M589.23,439.06c.54-1.33.55-2.92,1.92-3.79.81,1.26-.45,3.55-1.92,3.79Z"/>
      <path class="cls-8" d="M605.97,392.7c.18.56-.38,1.01-.49,1.43-.39.17-.59-.18-.66-.44-.13-.47.03-.7.3-.89.29-.21.54-.37.84-.1Z"/>
      <path class="cls-10" d="M321.6,39.65c-7.46-.41-14.68-.4-22.14.02l-10.89.62c-32.07,1.83-62.77,9.44-92.41,21.58-7.57,3.1-14.41,6.08-21.78,9.45l-11.92,5.45c-1.09.5-2.59.41-3.48,1.29-2.27,2.23-5.31,2.7-7.9,4.18l-8.33,4.76c-5.99,3.43-11.54,7.15-17.29,10.92-2.87,1.88-5.14,4.36-8.9,5.67.91-4.12,4.96-5.89,7.79-8.55,42.16-39.6,111.04-67.18,168.31-69.22l6.29-.22c25.39-.91,50.14,1,75.02,6.8,20.78,4.85,41.05,10.35,59.74,20.48l18,9.75c12.64,6.85,31.96,20.03,42.15,29.92,1.71,1.65,3.72,2.84,5.23,4.94.82,1.14,3.34,1.11,2.61,3.56l-8.24-5.16c-6.7-4.2-12.83-9.11-19.9-12.45l-7.7-3.64c-15.1-7.13-23.73-11.08-39.5-17.57-29.89-12.29-60.91-20.18-93.3-21.95l-11.47-.63Z"/>
      <path class="cls-5" d="M439.75,42.13c.3,1.84,2.67,2.31,4.33,2.36,2.7,1.13,5.36,2.48,7.74,4.18-.11.47-.04,1.03.39,1.18.53.18,1.02.09,1.49.08.43-.01.77.44,1.11.56-.1.47-.03,1.01.39,1.16.52.18,1.01.09,1.48.08s.79.45,1.17.62c-1.2.55,8.84,6.79,9.79,6.81,1.26,1.57,2.91,2.46,4.63,2.76.19.17.39.35.55.54,3.13,3.67,7.98,5.82,11.61,9.41l6.65,6.57c1.81,1.79,4.73,2.75,4.79,5.88-4.33-1.06-7.2-3.8-10.67-5.93l-26.43-16.27c-36.89-22.71-91.4-36.44-135.05-38.27-32.88-1.38-65.56,2.41-97.27,11.44-20.64,5.88-39.89,13.98-58.75,23.99-11.76,6.25-22.48,13.21-33.58,20.39-3.05,1.98-5.76,3.94-9.44,5.14.82-2.05,2.22-3.63,3.65-4.99l7.74-7.32c4.04-3.82,18.25-12.94,21.75-16.65,1.01-.37,1.64-1.92,2.94-1.76.42.05.93.15,1.44-.06.39-.16.34-.81.41-1.19,2.17-2.01,5.09-3.28,7.84-4.75,3.52-1.87,6.68-3.97,10.1-5.41.75.05,1.52,0,2.31-.37.5-.23.83-.79.75-1.46,35.3-18.19,74.58-28.28,114.49-30.1,40.7-1.85,95.45,7.15,130.95,25.77l10.68,5.6ZM302.78,20.67c5.49-.25,10.59-.25,15.77,0,2.05.1,3.93.9,6.11.55,3.5-.57,6.61.23,10.18.46,27.43,1.77,53.84,7.84,79.94,16,4.77,1.49,8.88,3.12,14.19,3.77-8.23-6.03-17.24-9.33-26.69-12.88-21.98-8.25-44.68-12.98-68.11-15.06-13.39-1.19-33.79-1.09-47.21.05-27.58,2.35-54.33,8.65-79.68,19.67-1.78.77-14.83,6.72-13.88,8,.19.26,1.02.52,1.46.31,4.09-1.89,7.97-2.66,12.32-4.05,25.77-8.23,51.95-13.94,79-15.82,3.38-.23,6.31-.97,9.62-.48,2.35.35,4.47-.41,6.98-.52Z"/>
      <path class="cls-9" d="M79.84,504.44c-1-.14-2.06-.68-2.29-2.05-5.88-6.02-10.31-12.87-15.1-19.76-3.35-4.82-12.05-16.63-12.62-21.52,2.42,2.47,3.82,6.12,5.85,9.31,7.09,11.14,14.92,21.49,23.11,31.87.62.78,1.18,1.29,1.04,2.14Z"/>
      <path class="cls-9" d="M90.69,516.33c-.55.61-8.96-7.21-7.34-7.82,2.91,1.95,5.88,4.67,7.34,7.82Z"/>
      <path class="cls-9" d="M472.28,61.91c-1.71-.3-3.37-1.19-4.63-2.76-.95-.02-10.98-6.26-9.79-6.81,5.24,2.34,10.07,5.84,14.42,9.57Z"/>
      <path class="cls-9" d="M444.08,44.49c-1.66-.05-4.03-.52-4.33-2.36,1.44.76,3.46.72,4.33,2.36Z"/>
      <path class="cls-9" d="M82.69,507.93c-1.59-.02-2.42-1.52-2.41-3.01,1.37.38,2.36,1.58,2.41,3.01Z"/>
      <path class="cls-9" d="M183.63,40.85c.08.68-.25,1.23-.75,1.46-.79.37-1.56.42-2.31.37.51-1.33,2.01-1.29,3.06-1.83Z"/>
      <path class="cls-9" d="M453.7,49.92c-.47.02-.97.1-1.49-.08-.43-.15-.49-.71-.39-1.18.57.41,1.89.16,1.88,1.25Z"/>
      <path class="cls-9" d="M456.69,51.72c-.47,0-.96.1-1.48-.08-.43-.15-.5-.69-.39-1.16.77.15,1.79.31,1.87,1.24Z"/>
      <path class="cls-9" d="M162.63,52.84c-.07.38-.02,1.02-.41,1.19-.51.21-1.03.11-1.44.06.19-.84,1.05-1.22,1.86-1.25Z"/>
      <path class="cls-15" d="M302.78,20.67c-2.5.11-4.62.87-6.98.52-3.31-.49-6.24.25-9.62.48-27.06,1.88-53.24,7.59-79,15.82-4.35,1.39-8.23,2.16-12.32,4.05-.44.21-1.27-.06-1.46-.31-.94-1.28,12.11-7.23,13.88-8,25.36-11.02,52.1-17.31,79.68-19.67,13.42-1.15,33.82-1.24,47.21-.05,23.43,2.08,46.13,6.81,68.11,15.06,9.45,3.54,18.46,6.85,26.69,12.88-5.31-.65-9.42-2.28-14.19-3.77-26.1-8.16-52.51-14.23-79.94-16-3.56-.23-6.68-1.03-10.18-.46-2.18.35-4.06-.45-6.11-.55-5.17-.25-10.27-.25-15.77,0Z"/>
      <path class="cls-7" d="M570.03,227.36c0,1.13-1.02,2.1-1.56,3.04-1.25-1.72-1.37-3.86-3.07-4.22-2.2-5.24-4.6-10.56-7.17-15.8l-4.34-8.86c-15.53-31.7-44.1-63.14-71.95-84.42-6-4.58-11.83-8.18-18.07-12.09-4.24-2.66-8.59-4.96-12.9-7.4l-5.03-2.86c-10.16-5.77-20.85-9.61-31.89-13.69-27.25-10.09-55.09-16.64-84.11-18.32-4.24-.25-8.13-.02-12.25-.51-4.74-.55-9.47-.17-14.22.02l-12.25.5c-33.47,1.37-84.31,15.39-113.88,31.15l-9.11,4.85c-10.31,5.49-28.35,17.63-37.16,25.11l-4.22,3.58-5.4,4.89c-12.93,11.7-31.11,31.76-40.29,46.43l-7.03,11.23c-14.87,23.75-26.94,56.14-33.32,83.56-.19.82.27,1.67.72,1.82-9.26,20.72-10.66,42.75-4.76,64.64-1.81,1.54-.41,14.05.5,17.34,1.95,7.06,3.98,13.88,5.41,21.05l3.71,18.47c1.9,9.48,4.38,18.6,7.64,27.68,1,2.78-.6,4.7-2.09,6.63l6.08,18.67c.56,1.71-.77,3.26.22,5.26.61,1.23,1.39,2.83,1.88,4.18,1.45,4,3.82,7.3,5.74,10.9,1.17,2.2,2.65,2.73,4.35,4.26,2.94,2.66,4.01,6.9,6.66,10.02,4.32,5.08,6.75,11.96,12.09,16.35,2.58.18,5.24.11,7.16,2.87,2.67,3.83,15.75,19.46,18.41,21.56,4.75,3.74,9.3,6.89,13.63,11.27,1.98,2,4.46,4.3,6.7,6.05l15.29,11.92c4.25,3.31,16.97,4.47,29.71,12.3,13.64,8.39,27.84,14.13,42.91,19.55,19.96,7.18,40.15,11.67,61.26,13.57,2.69.24,5.17.55,7.85.64l13.44.42c3.76.12,7.21.07,10.97,0l11.92-.27c3.04-.07,5.8-.46,8.86-.74,21.28-1.93,41.84-5.98,61.73-13.65l20.41-7.86c13.6-5.24,25.4-14.97,39.9-19.55,3.97-1.25,8.72-1.65,12.03-4.2l15.32-11.77c.96-.74,10.18-9.3,12.08-11.02l3.43-3.12c2.61-2.37,5.32-3.62,7.73-6.29l6.79-7.52,9.38-11.58c1.8-2.22,4.09-3.43,6.86-1.92,4.53-5.34,7.77-11.18,11.72-16.76.96-1.36,2.01-2.14,2.81-3.87,4.69-10.09,4.51-4.16,8.04-9.91,2.48-4.03,4.93-7.88,6.4-12.55.55-1.74,2.59-4.3,2.15-5.9-.71-2.6-.16-3.57.64-5.89l5.33-15.43c-1.66-1.64-3.32-3.38-2.37-6.08,3.77-10.61,6.4-21.23,8.56-32.28l4.2-21.43,4.18-15.72c.53-2.01,1.04-4.45,1.08-6.64l.28-14.92c.31-16.41,4.74-.35-.06-36.04-.75-5.56-2.28-10.35-3.52-15.77-3.73-16.35-7.67-32.31-13.84-47.9-.51-1.28-1.12-2.32-.15-3.27l3-1.99c.94.8.39,2,.79,2.92,4.39,9.84,7.56,19.75,10.49,30.11,2.19,7.77,2.95,15.62,5.59,23.14l2.67,7.62c.96,2.73.73,6.06,2.1,8.62,1.81,3.39,2.62,6.47,2.5,10.34-.06,1.78.64,3.29-.37,5.25-.61,1.18-1.44,3.42-.96,4.8,1,2.84-1.36,4.99-1.28,7.22.19,5.69-1.72,10.29-2.16,15.74l-.68,8.45c-.24,3.03-.79,6.35-1.18,9.5-.64,5.2-1.95,10.01-2.98,15.1l-2.54,12.58c-1.1,5.43-.87,10.7-1.98,16.04l-2.39,11.43c-.69,3.27-2.39,6.27-2.73,9.64-.22,2.15.46,4.21.1,6.37-.41,2.43-2.47,4.91-2.41,7.31.08,3.54-1.03,5.95-2.36,9.07l-2.39,5.65c-2.7,6.37-5.66,12.13-9.97,17.5-1,1.25-2.17,2.23-3.06,3.54l-6.55,9.66-13.76,17.55c-1.37,1.75-3.56,2.51-5.14,4.38-3.59,4.24-6.88,8.62-10.84,12.56l-8.11,8.07c2.5-2.48-9.33,7.93-8.44,7.17l-12.88,11.05-8.02,6.41c-1.88,1.5-4.03,1.85-5.97,3.03-9.89,6.05-19.05,12.83-29.53,17.8l-10.28,4.88c-31.28,14.85-64.06,24.52-98.76,27.49-2.61.22-5.16.53-7.72.67l-11.4.59c-4.98.26-10.06.44-15.03,0-4.1-.36-7.89-.22-12-.58l-7.2-.65c-16.09-1.45-31.24-3.87-46.85-8.13-11.22-3.06-21.85-6.12-32.45-10.66l-19.22-8.23c-12.35-5.29-23.43-12.12-34.62-19.37-8.06-5.22-9.67-4.67-16.93-10.8l-16.57-13.98c5.07,4.27-13.36-12.29-7.68-6.72l-8.48-8.32c-1.37-1.34-10.33-11.76-11.34-13.15-1.3-1.78-3.02-2.21-4.35-3.55-5.17-5.23-9.25-11.23-13.39-17.23l-6.85-9.93c-.72-1.04-2.07-1.6-2.46-2.92-.44-1.54-1.86-2.16-2.75-3.27-3.86-4.86-5.68-10.64-8.49-16.06-1.18-2.28-1.35-4.88-2.62-7-1.31-2.18-.75-4.13-1.44-6.44l-2.5-8.4c-.97-3.25.57-6.73-1.23-9.97-1.26-2.27-1.01-4.98-1.68-7.39-1.56-5.66-2.76-10.96-3.05-16.89-.38-7.75-5.16-24.79-6.69-36.23-.52-3.87-1.34-13.07-1.53-17.12-.15-3.03-2.64-6.4-2.07-9.43.74-3.89-.67-6.46-1.18-10.01-.51-3.59-.82-8.4-1.76-11.68-.36-1.67-.21-5.5.37-7.09,2.11-4.56,3.31-10.21,4.66-15.15l5.19-19.02c1.54-5.63,2.89-11.26,4.7-16.79l4.75-14.5c2.73-8.35,6.11-16.23,9.63-24.29,5.94-13.58,7.94-19.14,16.04-31.87,3.15-4.94,5.36-10.46,8.95-14.97,1.61-2.02,2.16-4.19,3.55-6.16,8.17-11.57,21.87-26.57,32.82-35.43l6.99-5.66c13.72-11.11,37.77-27.4,53.71-35.13,16.9-8.2,34.22-14.44,52.27-20.07,21.55-6.72,43.26-9.92,65.66-11.1,10.01-.53,19.66-.88,29.7-.12l9.99.75c26.34,1.98,51.6,7.7,76.16,17.08l14.83,5.66c11.45,4.37,22.06,9.43,32.63,15.9,18.42,11.27,73.56,51.67,78.69,67.56l1.01,3.13c1.34,4.13,5.07,7.69,7.47,11.74l3.37,5.67c3.21,5.41,6.52,10.41,9.07,16.25,3.94,9.03,8.26,17.67,11.56,26.67Z"/>
      <path class="cls-14" d="M247.86,157.71c-16.01,15.27-24.18,36.65-23.74,58.95l39.37.11c-.39-6.77-.18-12.77,1.6-18.88,3.25-9.79,10.08-17.3,18.99-22.51,23.96-12.02,50.6-7.55,70.23,11.45l24.79-25.55c.04-.77-.8-1.49-1.14-2.33.16-.5,1-.81,1.88-.57,19.28,5.13,37.67,12.1,55.28,21.5,16.87,9.01,32.66,19.04,46.42,32.12l8.32,7.91c1.33,1.26,3.29,2.02,3.39,3.85l-72.46.27.23,179.77,64.99.07c-.63,2.73-3.22,4.32-5.48,6.22-9.08,7.6-18.13,14.61-28.17,21.01-16.99,10.83-34.79,19.28-53.71,25.99-2.02.72-3.64,1.44-5.54.91,9.62-13.65,15.42-29.37,15.34-46.79l-37.39-.05c.12,9.47-2.08,18.49-8.12,25.92-10.3,11.29-24.73,16.99-40.15,16.41-15.55-.8-29.65-7.34-40.93-18.71l-25.25,25.13,6.85,6.98c-1.42.56-2.73.06-4.44-.25-25.34-4.62-49.16-13.13-72.01-25.05-18.18-9.48-34.62-21.1-49.88-34.64-1.22-1.08-2.51-1.73-2.13-3.38,11.06-1.14,21.92-3.87,32.18-8.52,33.35-15.12,53.92-48.24,52.69-84.52-1.21-35.68-23.78-67.52-57.9-80.27-10.72-4-22.15-6.36-33.57-6.48.04-1.2.95-1.92,2-2.96,17.35-17.26,37.25-31.39,59.12-42.7,18.19-9.41,37.17-16.07,56.99-21.03.62-.15,1.7.26,1.35.62ZM264.8,403.64l.2-113.46,96.14,96.52c4.83,4.85,7.07,10.79,8.95,17.13h38.03s-.25-10.58-.25-10.58l.41-169.29-39.98.08-.18,112.99-92.65-93.36c-5.48-5.52-8.64-12.02-10.75-19.52h-39.84s.28,10.55.28,10.55l-.48,169.09,40.11-.16Z"/>
      <path class="cls-12" d="M101.9,184.36c-1.95,1.82-3.96,3.1-5.51,5.02-1.43.46-2.99-1.76-3.92-2.86l-6.04,6.06c-.43.43-1.64-.66-1.3-1.24l6.18-10.66c1.09-1.88,2.11-3.74,1.73-6.04s3.32-6.77,4.75-8.91c3.39-5.07,10.02-11.35,11.47-13.26l2.6-3.4,11.93-11.54c11.5-11.12,36.65-29.49,51.02-37.07l6.63-3.5c10.3-5.43,20.57-9.51,31.66-13.51,20.53-7.41,41.71-11.91,63.43-14.64,2.21-.28,3.89-.58,6.14-.54,1.74.03,3.34-1.47,5.42-.62,1.58.64,3.3-.08,4.79-.59,3.83-1.31,8.22,1.01,11.84.14,4.34-1.04,7.4-1.04,11.69-.04,3.73.87,8.35-1.44,12.37-.07,1.29.44,2.81,1.13,4.18.58,2.28-.92,4.14.5,6.12.48,2.19-.02,3.93.32,6.04.59,24.01,3.08,49.32,8.89,71.82,17.9,15.01,6.02,29.22,12.57,42.79,21.42,26.77,17.45,49.44,37.72,68.41,63.25,2.05,2.75,1.82,5.67,2.72,8.5,1.46,4.57,8.39,13.44,7.03,14.58-2.28,1.92-6.4-6.45-8.45-6.99-1.38-.36-3.17,3.64-5.45,1.37-21.6-21.51-45.92-40.09-73.22-53.75l-10.56-5.29c-35.2-17.63-73.86-26.55-113.3-28.53-78.03-3.93-160.28,22.93-217.4,76.11l-7.59,7.07Z"/>
      <path class="cls-12" d="M514.23,505.5c-.29.03-.72.3-.8.58-47.99,34.67-122.38,61.78-181.69,63.93l-14.04.51c-4.78.17-9.57.55-14.34,0-4.54-.52-8.77-.17-13.44-.47-47.75-3.05-89.78-14.77-132.87-35.48l-7.82-3.76c-12.51-6.01-30.66-16.11-40.93-24.7-.19-.17-.68-.39-.83-.62-1.89-2.79-5.82-3.68-7.97-6.45l-7.85-10.11c-1.13-1.46-9.29-6.49-10.57-9.03-1.64-3.25-3.88-5.28-6.31-7.73l-5.09-5.14c-2.45-2.48-3.37-6.48-5.24-9.5.36-2.08.51-9.28-.62-10.66-2.29-2.8.2-5.39-.02-7.94-.45-5.3-3.97-10.01-5.23-15.32-3.03-12.71-7.13-24.76-10.28-37.44l-3.01-12.15c-.64-2.58-1.26-4.88-1.65-7.49l-.98-6.59c-.33-2.25-.7-3.77.08-5.58,2.58,2.36,3.18,6.45,5.29,9.05-.55.18-1.05,1.64-.69,2.42,1.86,4.1,1.84,8.18,2.69,12.5,2.7,13.67,7.44,26.43,12.51,39.33,2.39,6.08,3.06,12.37,5.33,18.35l4.81,12.65c.98,2.58.49,5.46,2.66,7.86-1.11,1.18-2.19,1.16-3.54,2.34,4.68,12.57,6.95,8.8,10.84,12.04,1.6,1.34,2.28,3.28,3.51,4.9,1.38,1.81,3.6,2.84,4.89,4.73,1.74,2.54,3.33,5.02,6.02,6.67l18.58,11.38c16.94,10.38,33.65,20.2,51.65,28.74,39.56,18.77,78.72,28.83,122.48,31.8l6.66.45c9.9.67,19.38.41,29.33-.09,24.32-1.21,49.47-4.88,72.9-11.62l10.68-3.07c26.59-7.65,60.43-24.1,84.33-38.72l28.25-17.29c4.03-2.47,6.35-4.77,9.13-8.5,2.15-2.89,5.36-4.98,7.18-8.42,1.33-2.5,5.49-2.71,7.3-4.51.91-.9,4.49-7.26,3.92-8.82-.21-.58-2.08-.25-2.63-1.51-.18-.4-.14-1.41.28-1.79,1.84-1.65.47-3.61,1.12-5.26l5.1-12.79c1.93-4.85,1.93-9.97,3.77-14.92l2.1-5.66,7.79-20.5c2.05-5.4,5.1-19.11,5.72-25.11.37-3.6,1.88-6.88,2.49-10.53,3.06-18.24,4.15-13.63,3.2-32.97l-.62-12.56-1.78-15.29c-.09-.76-.3-1.69-.89-2.05-.45-.28-1.45.39-2,.44-2.31.18-1.4-2.38-1.96-3.52-1.33-2.68-2.89-5.14-2.81-8.36-2.01-.47-1.6,1.52-2.54,2.38-8.67,7.89-24.37,3.24-32.82-2.51-9.45-6.43-12.9-12.61-19.82-21.56-.54-.69-.2-1.85-.66-2.38h17.37c.59,2.63,3.44,4.08,5.42,5.97,5,4.74,18.57,12.81,22.6,3.42,4.58-10.68-3.85-18.56,5.37-17.74.76-1.14-1.75-6.11.48-5.97,1.85.11,3.77,8.76,5.86,8.53.45-.05.77-.19.82-.61.05-.39-.48-.84.3-1.8,3.89,9.39,6.99,24.62,9.47,36.86,1.24,6.12,3.21,23.59,3.44,29.58.14,3.86-1.16,7.86-1.39,11.68l-.38,6.26-3.69,26.63c-.14,1.03-3.44,15.96-3.83,17.28-3.92,13.34-7.78,26.37-10.98,39.95-1.28,5.45-3.65,10.19-5.57,15.4-1.41,3.85,3.24,4.81.39,8.83-1.75,2.47-.7,7.44-1.11,11.09-3.47,7.71-3.74,8.77-9.79,14.5-7.21,6.83-5.74,8.09-9.52,10.93l-7.52,5.64-7.49,9.9c-1.18,1.56-7.71,4.97-8.49,7.1Z"/>
      <ellipse class="cls-16" cx="126.54" cy="313.66" rx="53.12" ry="53.07"/>
      <path class="cls-11" d="M42.74,354.33c-.78,1.81-.42,3.33-.08,5.58l.98,6.59c.39,2.61,1.01,4.91,1.65,7.49l3.01,12.15c3.15,12.69,7.25,24.73,10.28,37.44,1.26,5.31,4.79,10.02,5.23,15.32.22,2.56-2.27,5.14.02,7.94,1.13,1.38.97,8.57.62,10.66,1.87,3.02,2.79,7.02,5.24,9.5l5.09,5.14c2.43,2.46,4.67,4.48,6.31,7.73,1.28,2.54,9.44,7.58,10.57,9.03l7.85,10.11c2.16,2.78,6.09,3.66,7.97,6.45-17.11-6.78-13.13-3.25-23.22-18.7-1.55-2.37-3.11-3.38-5.41-4.89-2.05-1.35-2.83-4.6-4.2-6.53-1.17-1.65-3.07-2.14-4.37-3.49l-4.38-4.5c-1.78-1.83-2.32-4.48-3.69-6.63-2-3.12-2.31-7.17-.4-10.29-.11-2.13-2.54-4.1-2.2-5.9,2.09-4.63-4.04-12.26-4.15-17.1-.15-7.1-1.3-13.33-3.28-20.1l-3.37-11.54c-1.74-5.98-3.63-11.8-5.07-17.89-1.54-6.5-1.7-13.01-3.06-19.53l-1.71-8.2c-.18-.88.18-1.6.79-1.9.17,1.68,3.55,3.92,2.96,6.04Z"/>
      <g>
        <path class="cls-6" d="M560.99,494.64c-.01-2.09,1.81-3.51,3.01-5.27l4.35-6.38,5.14-8.11c15.21-23.99,32.5-64.5,37.97-92.16l3.96-20.04,1.62-12.79,1.98-18.41.45-16.94c.2-7.74.13-15.27-.88-23.02-.37-2.8-.68-5.61-.78-8.27l-.3-8.08c-.66-17.99-11.71-56.31-18.87-74.7-7.18-18.43-15.96-35.75-26.25-52.72-9.02-14.88-19.77-27.89-30.82-41.15-2.92-1.41-4.55-3.83-6.78-5.88l-10.66-9.8c-13.85-12.72-27.82-24.66-43.69-34.83-8.72-5.59-31.93-19.74-40.48-23-3.19-1.22-6.2-2.06-9.16-4.1-1.03-.71-3.05-1.51-4.22-1.6-2.34-.17-3.26-1.43-5.19-2.19-24.96-9.86-50.97-15.82-77.64-18.89-3.9-.45-7.44.19-11.22-.48-1.87-.33-3.43-.96-5.53-.94l-35.25.34c-2.48.02-4.72.91-7.34,1.05l-10.16.56c-2.46.14-4.92.42-7.27,1.2-21.38,3.16-42.06,8.38-62.45,15.8-7.78,2.83-15.04,5.35-22.45,9.06l-15.55,7.77c-9.04,4.52-17.01,9.72-25.52,15.21-17.35,11.2-32.84,24.33-47.55,38.74-1.57,1.54-2.96,2.45-4.3,4.18-2.34,3.04-5.26,5.36-7.85,8.31-10.92,12.46-20.75,25.3-29.79,39.23-4.26,6.57-8.19,12.62-11.59,19.6-2.4,4.94-5.35,9.53-7.27,14.72-2.45,6.6-9.25,17.24-10.1,22.19-.99,5.7-3.03,10.34-4.84,15.81-7.01,21.12-11.34,42.81-13.66,64.97-.61,5.89-1.15,11.04-1.28,16.8l-.17,7.23c-.09,3.96-.01,10.41.26,14.39l.61,9,.55,10.21c.15,2.88,1.45,16.59,1.94,19.19l3.77,19.76c3.7,19.37,14.42,49.58,23.35,67.19l7.25,14.29c1.42,2.8,5.31,9.68,7.27,11.97.53.62.48,1.77.43,2.31-1.29-.62-1.7-1.87-2.59-3.33C18.44,428.67,3.07,378.9.27,327.36c-.41-7.52-.35-29,.21-36.44l.64-8.45c5.75-76.41,44.07-150.07,100.59-201.63,118.17-107.81,300.19-107.76,418.26,0,55.8,50.92,91.26,119.04,99.77,194.15.23,2-.71,3.21.34,5.57.7,1.56.59,4.73.76,6.7l.69,8.41c.88,10.69.49,20.95-.12,31.75-3.35,60.06-23.92,119.51-60.4,167.21Z"/>
        <path class="cls-8" d="M615.08,292.22c-2.89-19.26-5.73-38.46-10.84-57.66l-3.8-14.29c-3.4-12.77-8.39-24.83-14.3-36.67l-11.16-22.33c-2.15-4.31-4.56-7.92-7.31-12-9.51-14.11-19.54-27.65-31.01-40.19-2.72-2.97-5.54-5.14-8-8.34-2.33-3.03-5.54-5.68-8.33-8.29l-6.83-6.4-5.66-4.59c-20.3-16.48-45.89-34.12-69.94-43.41-1.47-.57-2.96-1.04-4.66-1.87-9.93-4.82-19.89-8.5-30.46-12.17-27.53-9.55-56.12-14.3-85.4-14.86-32.76-.63-64.9,3.35-95.79,13.89-16.39,5.59-32.32,11.42-47.2,20.15l-17.74,10.41-14.99,9.64c-.77.5-1.91.32-2.97,1.07-8.45,5.98-16.6,11.99-24.31,18.86l-3.82,3.4c-2.95,2.63-5.89,4.73-8.68,7.57l-14.85,15.12-5.93,6.13c-10,10.34-28.17,35.83-35.1,49.28l-4.52,8.77c-2.27,4.41-3.96,9.04-6.56,13.32-1.59,2.6-2.17,5.34-3.24,8.07-2.77,7.08-5.43,13.78-7.84,21.03-6.43,19.35-11.82,41.78-14.13,61.94-.59,5.16-1.67,10.21-1.83,15.43-.08,2.55-.31,4.79-.52,7.28l-.55,6.52c-.14,1.72,1.12,3.52.38,5.25-.92,2.14-.09,4.08-.05,6.24l.23,11.94.67,7.2.57,8.99,1.31,7.72,2.26,14.44c1.25,7.95,5.32,25.3,7.8,32.75l3.76,11.28c2.07,6.19,3.72,12.24,6.49,18.2,3.44,7.4,6.45,14.75,10.19,22l2.91,5.64,4.86,9.63c5.53,10.96,22.5,33.84,31.23,43.03l16.34,17.2c5.63,5.93,11.79,10.83,17.87,16.42,8.5,7.82,18.14,14.15,27.8,20.62,3.68,2.46,6.93,5.11,10.75,7.2l11.64,6.37c14.17,7.75,28.25,15.01,43.7,19.89l21.54,6.79c13.25,4.18,48.81,9.98,62.68,10.37l14.82.42c3.03.09,5.53.07,8.54-.01l14.75-.44c68.85-2.04,142.63-37.06,192.67-83.12-3.55,6.4-36.35,31.04-44.36,35.9l-15.39,9.33c-3.65,2.22-6.96,4.06-10.91,6.03-21.44,10.68-43.33,19.8-66.93,25.03l-15.81,3.51c-11.65,2.58-23.34,4.77-35.2,5.13l-8.71.27c-10.22.31-19.72.53-30.01.06-21.25-.97-41.9-3.77-62.24-9.72l-16.35-4.78c-24.54-7.18-61.79-25.45-82.13-40.76l-8.93-6.72c-6.87-5.17-13.53-10.2-19.93-16.08-8.4-7.73-16.17-15.65-23.97-23.94-5.62-5.97-10.24-12.05-15.25-18.52-11.21-14.46-20.78-29.58-28.76-46.08l-8.57-17.72c-2.4-4.95-3.25-10.61-6.07-15.5-1.19-2.07-.7-4.3-1.47-6.53-5.84-17-10.11-34.05-12.9-51.79l-1.47-9.37c-1.84-11.73-2.92-34.11-2.51-46.18l.61-17.9c.09-2.52,1.04-4.97,1.12-7.55.2-6.8,1.88-12.91,3.08-19.51,2.35-12.91,4.83-25.33,9.13-37.74l7.92-22.8c4.81-13.84,22.12-47.47,31.13-59.29l18.4-24.14,4.52-5.1c7.38-8.34,13-12.55,20.6-20.78,1.73-1.87,3.3-3.38,5.21-5.06l4.75-4.17c8.14-7.15,16.42-13.6,25.66-19.3,10-6.17,19.23-12.36,29.67-17.8C217.67,16.87,268.94,4.74,326.94,7.65c54.81,2.75,107.45,20.35,153.2,50.5,15.11,9.95,30.45,21.59,43.06,34.3l6.01,6.06c8.41,8.48,16.07,16.97,23.26,26.52,4.66,6.19,9.42,11.78,13.52,18.36,4.38,7.04,8.85,13.57,12.61,21.02l7.42,14.73c8.36,16.59,16.21,40.12,20.87,58.19,3.06,11.86,4.94,23.5,7.07,35.54.29,1.66,2.66,19.72,1.11,19.34Z"/>
        <path class="cls-9" d="M472.83,62.46c3.55,1.32,15.41,9.38,17.69,12.27,2.26,2.86,5.06,3.94,7.58,6.33l9.24,8.76c4.18,3.97,8.53,7.81,12.38,12.12,3.97,4.44,7.45,8.94,11.23,13.42l4.68,5.55c5.89,6.98,10.44,14.61,15.68,22.17,6.55,9.44,12.33,18.86,16.32,29.65,1.91,5.18,6.9,13.13,7.77,15.76.69,2.1,1.06,4.21,2.18,6.15,1.87,3.27,2.34,6.81,3.57,10.26,1.46,4.11,3.19,7.93,4,12.28,1.27,6.87,3.91,13.03,6.14,19.66l4.08,12.12,4.02,12.74c2.34,7.41,7.45,18.77,8.61,29.25l1.64,14.9c.42,3.82-.24,24.18-.79,28.18-.49,3.54-1.36,6.56-1.14,10.26.16,2.72-.89,5.54-1.08,8.35-.49,7.39-2,14.34-3.51,21.56l-4.36,20.89-4.12,13.88c-2.93,9.88-8.22,24.17-12.69,33.44l-6.07,12.58c-4.71,9.75-9.94,18.69-16.18,27.56-7.38,10.48-14.73,20.54-23.57,29.81-1.15,1.21-7.21,6.72-6.35,8.24-1.27.67-1.95,3.04-3.53,3.49-.89.15-1.92.71-2.57,1.61-2.33,3.24-31.98,27.62-36.93,30.86l-11.59,7.59c-7.55,4.94-14.99,9.66-23.08,13.7l-9.61,4.81c-35.22,17.61-78.66,28.4-117.95,29.92-9.47.36-18.39.39-27.83-.01-39.42-1.66-80.76-12.02-116.23-29.38l-10.93-5.35c-10.51-5.14-19.73-11.43-29.51-17.94-13.6-9.06-27.17-20.49-39.02-31.81l-7.66-7.32c-.99-.94-1.58-2.05-1.52-3.18,5.84,4.28,10.33,10.24,16.14,14.94l8.28,6.71c8.4,6.8,15.97,14.23,25.16,19.94,10.57,6.56,20.38,13.37,31.61,18.72,9.73,4.64,18.74,9.34,28.88,13.25,28.84,11.11,58.86,17.87,89.75,19.63,37.8,2.15,68.84-1.45,105-11.69,14.03-3.97,26.7-9.22,39.88-15.23,15.52-7.08,29.49-15.36,43.76-24.63,9.1-5.91,17.16-12.65,25.16-19.98,2.6-2.38,5.3-4.23,7.99-6.42,3.07-2.51,5.87-5.28,8.79-8.01,1.04-.97,12.41-13.53,12.59-13.66,3.38-2.32,13.33-16.02,16.07-20.13,4.71-7.08,7.36-8.44,12.97-18.09l7.45-12.82,7.48-15.54c1.57-3.27,2.93-6.57,4.6-9.72.89-1.69.63-3.13,1.22-4.88l4.95-14.71c4.34-12.9,8-40.64,9.31-54.78.47-5.02,3.4-9.44,2.55-12.7-.5-1.94.71-3.67.81-5.47l.49-8.58c.1-1.79,1.02-3.08,1.07-5.11.07-2.73-.95-5.7-.29-8.33.77-3.07,1.98-5.71,1.68-8.74-.38-3.85-1.51-6.72-2.96-10.08-1.69-3.9-1.23-8.63-2.67-12.58-.68-1.87-2.16-3.29-2.39-5.47-.54-5.28-2-10.14-3.63-15.18l-7.31-22.69c-1.42-4.4-2.39-8.56-4.08-12.89-4.6-11.82-8.99-23.39-15.63-34.29-1.15-1.88.47-4.58-.07-6.29-1.4-4.43-4.6-7.76-7.44-11.15-.84-1-.55-2.59-1.42-3.54l-5.21-5.69c-.42-.46-.52-1.17-.3-1.59.27-.54.9-.78,2.1-1.44-3.37-5.87-7.11-11.67-11.95-16.63-2.26-2.32-5.27-3.49-7.63-5.55-3.74-3.27-7.03-7.03-11-9.86-2.12-1.5-3.13-3.34-4.88-4.97l-9.52-8.88c-12.82-11.96-36.21-29.88-51.75-37.15l-14.55-6.8-10.87-5.51c-4.17-2.11-8.28-3.52-12.73-5.37-28.19-11.72-57.71-18.17-88.12-20.29-4.69-.33-8.99.13-13.54-.43-4.55-.56-8.99-.17-13.55,0l-13.53.47c-33.99,1.19-73.6,12.6-104.51,27.51l-26.18,12.62c-15.5,7.48-43.65,30.41-56,43.52-2.13,2.26-9.58,8.11-13.34,11.87-3.01,3.01-5.66,5.32-9.21,7.77-5.93,4.11-9.78,11.12-13.22,17.21.72.92,1.4,1.48,1.52,1.92.21.77-.31,1.58-.8,2.34l-8.99,13.84c-1.2,1.84-4.18,3.21-4.47,5.69-.32,2.64.1,5.32-1.14,7.86l-8.46,17.31-4.96,12.46c-1.62,4.06-3.23,7.87-4.28,12.12-2.89,11.73-8.79,24.93-11.33,38.14-.65,3.39-2.27,5.82-2.95,9l-2.64,12.47c-.69,3.25-5.36,5.77-1.42,18.87.77,2.56-.34,5.69-.24,8.35.08,2.16.97,3.61,1.07,5.57l.45,8.15c.11,2,1.32,3.89.82,6.06s2.02,7.69,2.46,11.6c1.69,15.25,5.08,42.65,9.87,56.61l5.85,17.04,5.99,14.93c1.41,3.52,3.27,6.7,4.23,10.18-.86.16-1.15-.53-1.54-1.36-3.65-7.65-7.75-14.82-10.9-22.74-2.51-6.31-5.01-12.35-7-18.86l-5.35-17.43c-2.1-6.84-8.2-37.75-8.91-45.12l-1.39-14.3c-.38-3.95-1.15-7.42-1.14-11.56.01-4.56-1.01-13.06-.76-16.88.42-6.4,1.16-12.59,2.01-19.01.34-2.56.92-4.48,1.41-7.01l1.55-8.11c.32-1.66,1.74-3.01,1.72-4.88-.02-2.29,1.22-3.78,2.14-5.67,1.77-3.64,4.59-13.85,6.03-18.46,2.51-8.06,6.12-15.59,8.13-23.78,1.54-6.27,3.09-12.06,5.23-18.15l3.42-9.76c1.99-5.68,4.99-10.54,7.38-16.09l7.53-17.5c3.12-7.24,7.87-13.17,12.25-19.64l6.02-8.9c4.06-6,8.19-11.59,12.86-17.15l9.34-11.12c3.91-4.65,8.29-8.9,12.62-13.07l9.52-9.18,9.08-7.6c5.97-4.99,11.92-9.34,18.5-13.4,3.32-2.04,5.96-4.93,9.45-6.19-3.5,3.71-17.71,12.83-21.75,16.65l-7.74,7.32c-1.44,1.36-2.84,2.94-3.65,4.99,3.68-1.2,6.39-3.16,9.44-5.14,11.1-7.18,21.82-14.14,33.58-20.39,18.85-10.01,38.11-18.12,58.75-23.99,31.71-9.03,64.39-12.82,97.27-11.44,43.65,1.83,98.16,15.56,135.05,38.27l26.43,16.27c3.46,2.13,6.34,4.87,10.67,5.93-.06-3.13-2.97-4.08-4.79-5.88l-6.65-6.57c-3.63-3.59-8.47-5.74-11.61-9.41ZM321.6,39.65l11.47.63c32.39,1.77,63.41,9.66,93.3,21.95,15.77,6.48,24.4,10.44,39.5,17.57l7.7,3.64c7.07,3.34,13.2,8.26,19.9,12.45l8.24,5.16c.73-2.45-1.79-2.43-2.61-3.56-1.51-2.1-3.52-3.28-5.23-4.94-10.19-9.88-29.51-23.07-42.15-29.92l-18-9.75c-18.69-10.12-38.96-15.63-59.74-20.48-24.87-5.8-49.63-7.71-75.02-6.8l-6.29.22c-57.27,2.05-126.15,29.63-168.31,69.22-2.83,2.66-6.87,4.43-7.79,8.55,3.76-1.31,6.04-3.79,8.9-5.67,5.74-3.77,11.29-7.5,17.29-10.92l8.33-4.76c2.58-1.48,5.63-1.95,7.9-4.18.89-.88,2.39-.79,3.48-1.29l11.92-5.45c7.37-3.37,14.21-6.35,21.78-9.45,29.64-12.13,60.33-19.75,92.41-21.58l10.89-.62c7.46-.42,14.67-.43,22.14-.02Z"/>
        <path class="cls-10" d="M437.9,38.05c-.14.31.09.94.65,1.16,5.05,1.99,9.39,4.79,14.03,7.54l12.75,7.56c6.29,3.73,22.2,14.76,27.29,19.57,2.83,2.67,5.25,5.03,8.57,7.17,4.77,3.08,8.02,7.9,12.37,11.5,5.58,4.62,9.88,10,14.58,15.41,6.6,7.6,4.73,6.5,9.22,12.45l14.65,19.41,7.15,9.21c12.07,15.55,6.06,10.17,14.95,25.08,2.52,4.23,3.6,9.2,6.74,13.21.64.81.33,2.39.75,3.33l4.65,10.39,5.52,14.26c.84,2.16,1.36,4.63,2.05,6.91l3.98,13.18,5.02,16.14c5.56,17.87,8.47,36.26,10.5,54.83.6,5.53-1.16,13.16-.82,17.46.21,2.67.07,5.04-.26,7.82l-3.44,29.08-2.97,16.97-4.73,19.12c-1.68,6.77-4.08,12.91-6.23,19.51l-3.42,10.51c-2.85,8.76-7.75,16.45-11.45,24.88-7.94,18.12-23.45,39.89-36.24,54.96-3.73,4.4-8.57,11.09-13.98,13.91-.86-1.53,5.2-7.04,6.35-8.24,8.84-9.26,16.19-19.33,23.57-29.81,6.24-8.87,11.47-17.8,16.18-27.56l6.07-12.58c4.47-9.27,9.76-23.55,12.69-33.44l4.12-13.88,4.36-20.89c1.51-7.22,3.02-14.17,3.51-21.56.19-2.81,1.24-5.63,1.08-8.35-.22-3.7.65-6.72,1.14-10.26.55-4,1.21-24.36.79-28.18l-1.64-14.9c-1.15-10.48-6.27-21.84-8.61-29.25l-4.02-12.74-4.08-12.12c-2.24-6.64-4.87-12.79-6.14-19.66-.81-4.35-2.54-8.17-4-12.28-1.23-3.45-1.7-6.98-3.57-10.26-1.11-1.94-1.48-4.05-2.18-6.15-.87-2.64-5.86-10.59-7.77-15.76-3.99-10.8-9.77-20.21-16.32-29.65-5.24-7.56-9.8-15.19-15.68-22.17l-4.68-5.55c-3.77-4.48-7.26-8.98-11.23-13.42-3.85-4.31-8.2-8.15-12.38-12.12l-9.24-8.76c-2.52-2.39-5.32-3.47-7.58-6.33-2.28-2.89-14.15-10.95-17.69-12.27-.17-.19-.36-.38-.55-.54-4.35-3.73-9.18-7.23-14.42-9.57-.38-.17-.69-.63-1.17-.62-.08-.92-1.1-1.09-1.87-1.24-.34-.12-.68-.57-1.11-.56,0-1.09-1.31-.84-1.88-1.25-2.38-1.7-5.04-3.05-7.74-4.18-.87-1.64-2.89-1.6-4.33-2.36l-10.68-5.6c-35.51-18.62-90.25-27.63-130.95-25.77-39.91,1.82-79.19,11.91-114.49,30.1-1.05.54-2.55.49-3.06,1.83-3.42,1.44-6.58,3.54-10.1,5.41-2.76,1.46-5.68,2.74-7.84,4.75-.81.03-1.66.41-1.86,1.25-1.3-.16-1.93,1.39-2.94,1.76-3.49,1.26-6.14,4.14-9.45,6.19-6.58,4.06-12.53,8.41-18.5,13.4l-9.08,7.6-9.52,9.18c-4.33,4.17-8.71,8.42-12.62,13.07l-9.34,11.12c-4.67,5.56-8.8,11.16-12.86,17.15l-6.02,8.9c-4.38,6.47-9.13,12.4-12.25,19.64l-7.53,17.5c-2.39,5.56-5.39,10.41-7.38,16.09l-3.42,9.76c-2.14,6.1-3.69,11.88-5.23,18.15-2.01,8.19-5.62,15.72-8.13,23.78-1.44,4.61-4.26,14.81-6.03,18.46-.92,1.9-2.17,3.38-2.14,5.67.02,1.87-1.41,3.22-1.72,4.88l-1.55,8.11c-.48,2.54-1.06,4.45-1.41,7.01-.85,6.42-1.59,12.61-2.01,19.01-.25,3.82.78,12.31.76,16.88-.01,4.14.75,7.61,1.14,11.56l1.39,14.3c.72,7.38,6.81,38.28,8.91,45.12l5.35,17.43c2,6.51,4.49,12.55,7,18.86,3.16,7.92,7.25,15.09,10.9,22.74.39.83.69,1.52,1.54,1.36.18.67,1.29,1.5,1.19,2.36.57,4.89,9.27,16.7,12.62,21.52,4.79,6.89,9.22,13.73,15.1,19.76.22,1.37,1.29,1.9,2.29,2.05l.44.48c-.01,1.49.82,2.99,2.41,3.01.26.14.42.42.65.58-1.62.61,6.79,8.44,7.34,7.82.55.14.75.98,1.13,1.26-.06,1.13.53,2.24,1.52,3.18l7.66,7.32c11.85,11.31,25.42,22.75,39.02,31.81,9.77,6.51,18.99,12.8,29.51,17.94l10.93,5.35c35.47,17.36,76.81,27.72,116.23,29.38,9.43.4,18.35.38,27.83.01,39.3-1.51,82.74-12.3,117.95-29.92l9.61-4.81c8.09-4.05,15.53-8.76,23.08-13.7l11.59-7.59c4.94-3.24,34.6-27.62,36.93-30.86.65-.9,1.68-1.46,2.57-1.61.49,1.51-12.08,13-13.18,13.75-3.17,2.15-5.64,4.72-8.58,7.04l-15.91,12.55c-23.96,18.89-52.34,31.59-80.96,42.25-4.22.44-7.29,1.72-11.2,2.8-32.08,8.84-66.62,13.62-100,11.75-16.27-.91-32.01-2.64-47.86-6.19-37.7-8.45-68.55-20.41-101.01-41.21-6.86-4.4-13.33-8.35-19.58-13.51l-21.7-17.91c-1.95-1.61-4.33-2.71-5.95-4.85-5.03-6.64-11.09-11.88-16.61-18.06-8.45-9.45-15.56-19.14-22.88-29.46-10.68-15.06-18.92-31.13-26.2-48.1-2.85-6.65-5.44-13.04-7.52-19.96l-7.4-24.52c-3.96-13.14-6.9-31.78-8.26-45.58l-1.12-11.37c-.25-2.51-.52-4.79-.57-7.26l-.36-16.05c-.04-2.01-.64-3.57.17-5.64.08-.2.45-10.85.14-8.42l1.11-8.77c.42-3.3,1-6,1.64-9.11l3.78-18.55c.93-4.57,2.42-8.65,3.72-13.08l6.29-21.26c1.92-6.48,3.97-12.47,6.5-18.7,1.49-3.67,2.12-7.74,4.75-10.92,1.46-1.77.97-4.06,1.81-5.83l6.63-13.92c2.6-5.46,5.48-10.7,8.35-16.07,4.52-8.47,8.89-11.5,11.94-15.8l15.58-21.97c2.09-2.94,3.89-5.58,6.26-8.28,6.57-7.49,12.43-15.36,20.43-21.62,4.94-6.17,11.7-10.11,17.34-15.64l4.52-4.43,9.27-6.85c.9-.67,1.79-1.16,2.04-2.1l14.99-9.64,17.74-10.41c14.88-8.73,30.81-14.56,47.2-20.15,30.89-10.54,63.03-14.52,95.79-13.89,29.28.56,57.87,5.31,85.4,14.86,10.56,3.67,20.53,7.35,30.46,12.17,1.71.83,3.19,1.3,4.66,1.87Z"/>
        <path class="cls-4" d="M91.81,517.59c-.38-.28-.58-1.12-1.13-1.26-1.46-3.15-4.43-5.88-7.34-7.82-.24-.16-.4-.44-.65-.58-.05-1.43-1.03-2.62-2.41-3.01l-.44-.48c.14-.86-.42-1.36-1.04-2.14-8.2-10.38-16.02-20.73-23.11-31.87-2.03-3.19-3.42-6.84-5.85-9.31.1-.86-1.01-1.69-1.19-2.36-.95-3.47-2.81-6.66-4.23-10.18l-5.99-14.93-5.85-17.04c-4.79-13.96-8.18-41.36-9.87-56.61-.43-3.91-2.96-9.43-2.46-11.6s-.71-4.06-.82-6.06l-.45-8.15c-.11-1.96-.99-3.41-1.07-5.57-.1-2.66,1-5.79.24-8.35-3.94-13.1.73-15.62,1.42-18.87l2.64-12.47c.67-3.18,2.3-5.62,2.95-9,2.54-13.21,8.44-26.41,11.33-38.14,1.05-4.25,2.66-8.06,4.28-12.12l4.96-12.46,8.46-17.31c1.24-2.54.83-5.22,1.14-7.86.3-2.48,3.28-3.85,4.47-5.69l8.99-13.84c.49-.76,1.01-1.57.8-2.34-.12-.44-.8-1-1.52-1.92,3.44-6.09,7.3-13.11,13.22-17.21,3.54-2.46,6.2-4.76,9.21-7.77,3.75-3.76,11.21-9.61,13.34-11.87,12.35-13.11,40.5-36.04,56-43.52l26.18-12.62c30.91-14.91,70.51-26.32,104.51-27.51l13.53-.47c4.56-.16,9-.55,13.55,0,4.55.56,8.84.1,13.54.43,30.41,2.12,59.93,8.57,88.12,20.29,4.44,1.85,8.55,3.25,12.73,5.37l10.87,5.51,14.55,6.8c15.54,7.27,38.93,25.19,51.75,37.15l9.52,8.88c1.75,1.63,2.77,3.47,4.88,4.97,3.97,2.82,7.26,6.59,11,9.86,2.36,2.06,5.36,3.23,7.63,5.55,4.84,4.95,8.58,10.76,11.95,16.63-1.2.66-1.82.9-2.1,1.44-.21.42-.12,1.12.3,1.59l5.21,5.69c.87.95.58,2.54,1.42,3.54,2.84,3.39,6.04,6.71,7.44,11.15.54,1.71-1.08,4.41.07,6.29,6.64,10.89,11.03,22.46,15.63,34.29,1.69,4.33,2.66,8.49,4.08,12.89l7.31,22.69c1.62,5.04,3.08,9.9,3.63,15.18.22,2.18,1.7,3.6,2.39,5.47,1.45,3.95.98,8.68,2.67,12.58,1.45,3.36,2.59,6.23,2.96,10.08.3,3.03-.91,5.67-1.68,8.74-.66,2.63.36,5.6.29,8.33-.05,2.03-.96,3.32-1.07,5.11l-.49,8.58c-.1,1.8-1.32,3.53-.81,5.47.85,3.26-2.08,7.68-2.55,12.7-1.32,14.14-4.97,41.88-9.31,54.78l-4.95,14.71c-.59,1.74-.33,3.19-1.22,4.88-1.67,3.15-3.02,6.45-4.6,9.72l-7.48,15.54-7.45,12.82c-5.61,9.66-8.26,11.02-12.97,18.09-2.73,4.11-12.69,17.81-16.07,20.13-.18.13-11.56,12.69-12.59,13.66-2.92,2.73-5.72,5.49-8.79,8.01-2.68,2.2-5.39,4.04-7.99,6.42-8,7.34-16.06,14.07-25.16,19.98-14.27,9.27-28.24,17.55-43.76,24.63-13.18,6.01-25.85,11.26-39.88,15.23-36.15,10.24-67.19,13.84-105,11.69-30.89-1.76-60.91-8.52-89.75-19.63-10.14-3.91-19.15-8.61-28.88-13.25-11.23-5.36-21.03-12.16-31.61-18.72-9.19-5.7-16.76-13.13-25.16-19.94l-8.28-6.71c-5.81-4.7-10.3-10.66-16.14-14.94ZM469.36,564.47l9.97-6.37c12.82-8.2,24.59-17.86,35.3-28.73l13.06-13.26c2.42-2.46,4.3-5.41,6.91-7.61,1.71-1.44,2.84-2.99,4.22-4.74l8.49-10.72c1.31-1.66,2.85-2.78,3.99-4.46l9.94-14.53c5.42-7.92,9.54-15.01,12.72-24.1.68-1.95,2.21-3.5,2.75-5.65,1.16-4.7,3.6-8.96,4.91-13.46l3.79-13c.82-2.83,1.89-13.3,1.82-15.95-.06-2.11-.52-3.42.02-5.58,1.35-5.35,4.05-25.27,3.77-24.31,1.64-5.67,2.77-11.06,3.91-16.7.52-2.58,1.36-4.62,1.32-7.48-.05-3.77,1.25-7.47.66-11.36-.21-1.41,1.57-2.56,1.55-3.75-.1-4.68,1.3-13.52,2.29-18.44,1.03-5.14-5.17-20.11-5.33-21.54-.62-5.53-2.8-9.57-4.27-14.51l-9.42-31.89c-3.03-10.27-7.45-19.52-11.43-29.42-3.01-7.5-5.06-14.9-9.62-21.74-6.45-9.67-4.63-11.77-11.85-20.92-1.4-1.77-1.89-3.77-2.91-5.51l-4-6.81c-2.97-5.06-7.25-9.12-10.9-13.69-2.74-3.42-5.24-4.69-8.82-8.5-2.21-2.35-4.49-4.26-6.88-6.4l-10.12-9.03-11.1-9.42-5.09-3.82-5.79-3.82c-12.46-8.22-24.48-16.43-37.93-23.06-12.9-6.36-25.17-12.57-38.91-17.13-24.03-7.96-48.68-12.12-73.9-13.94-3.65-.26-6.69-.47-10.26-.47h-22.77c-3.75,0-7.04.23-10.85.5-31.06,2.16-68.17,9.21-96.26,23.05l-19.99,9.85-5.35,3.03c-9.6,5.45-18.3,11.41-27.56,17.31-8.87,5.66-16.47,12.06-24.27,19.01-3.24,2.89-6.47,5.54-9.61,8.53l-9.21,8.79c-1.96,1.87-3.94,3.28-5.74,5.51-3.59,4.44-7.61,8.49-10.71,13.35-1.24,1.95-7.15,13.1-7.78,13.76-4.53,4.75-6.13,12.31-11.5,20.66-4.72,7.33-7.05,14.86-10.26,22.9-7.76,19.46-15.15,38.67-19.51,59.25-3.3,4.37-2.99,9.51-4.54,14.44-.95,3.01-2.19,5.67-2.88,8.87-.9,4.16-3.6,8.21-2.53,12.84,1.26,5.4,2.13,13.31,2.45,18.78.08,1.44,1.86,2.73,1.45,4.58-.76,3.46.68,6.85.71,10.21.03,3.22.95,5.89,1.52,8.98,1.66,9.07,2.85,11.16,4.32,20.98l3.13,20.99c-.06-.41.06,11.83,1.26,15.74.74,2.39.34,5.17,1.6,7.52,1.68,3.15,1.8,6.69,2.96,9.91,1.71,4.77,3.52,9.5,5.55,14.17l4.86,11.21c2.27,5.24,4.84,10.46,8.35,14.92l4,5.08c3.05,3.88,5.02,8.35,8.16,12.16l14.33,17.34,8.73,9.47,11.86,12.12c10.65,10.88,22.2,20.76,35.05,28.9l6.7,4.25c6.05,3.83,11.81,7.74,18.18,11.13,19.41,10.35,36.98,18.24,58.24,24.53,35.37,10.46,65.07,13.84,102.12,12.32,49.15-2.02,101.56-18.67,142.92-45.11Z"/>
        <path class="cls-5" d="M469.36,564.47c-41.36,26.44-93.76,43.09-142.92,45.11-37.05,1.52-66.75-1.86-102.12-12.32-21.25-6.29-38.82-14.18-58.24-24.53-6.37-3.4-12.13-7.3-18.18-11.13l-6.7-4.25c-12.86-8.14-24.41-18.02-35.05-28.9l-11.86-12.12-8.73-9.47-14.33-17.34c-3.15-3.81-5.11-8.28-8.16-12.16l-4-5.08c-3.51-4.45-6.08-9.68-8.35-14.92l-4.86-11.21c-2.02-4.67-3.83-9.4-5.55-14.17-1.16-3.22-1.28-6.76-2.96-9.91-1.25-2.36-.86-5.14-1.6-7.52-1.2-3.91-1.33-16.15-1.26-15.74l-3.13-20.99c-1.46-9.82-2.66-11.9-4.32-20.98-.57-3.09-1.49-5.76-1.52-8.98-.03-3.37-1.47-6.75-.71-10.21.41-1.85-1.37-3.13-1.45-4.58-.32-5.47-1.19-13.38-2.45-18.78-1.08-4.62,1.63-8.67,2.53-12.84.69-3.2,1.93-5.86,2.88-8.87,1.55-4.93,1.24-10.07,4.54-14.44,4.36-20.59,11.75-39.8,19.51-59.25,3.21-8.04,5.54-15.57,10.26-22.9,5.37-8.35,6.97-15.91,11.5-20.66.63-.66,6.54-11.81,7.78-13.76,3.1-4.86,7.13-8.91,10.71-13.35,1.8-2.23,3.78-3.64,5.74-5.51l9.21-8.79c3.14-2.99,6.37-5.64,9.61-8.53,7.8-6.95,15.4-13.35,24.27-19.01,9.26-5.9,17.95-11.86,27.56-17.31l5.35-3.03,19.99-9.85c28.09-13.83,65.2-20.89,96.26-23.05,3.81-.26,7.1-.49,10.85-.49h22.77c3.57,0,6.61.2,10.26.46,25.22,1.81,49.88,5.98,73.9,13.94,13.74,4.55,26.01,10.76,38.91,17.13,13.45,6.63,25.47,14.84,37.93,23.06l5.79,3.82,5.09,3.82,11.1,9.42,10.12,9.03c2.39,2.13,4.67,4.04,6.88,6.4,3.58,3.8,6.08,5.07,8.82,8.5,3.65,4.56,7.93,8.63,10.9,13.69l4,6.81c1.02,1.74,1.51,3.74,2.91,5.51,7.22,9.15,5.4,11.25,11.85,20.92,4.56,6.84,6.61,14.24,9.62,21.74,3.98,9.9,8.4,19.15,11.43,29.42l9.42,31.89c1.46,4.95,3.64,8.98,4.27,14.51.16,1.43,6.36,16.4,5.33,21.54-.98,4.92-2.38,13.75-2.29,18.44.03,1.19-1.76,2.34-1.55,3.75.58,3.89-.71,7.59-.66,11.36.04,2.86-.8,4.9-1.32,7.48-1.14,5.64-2.27,11.03-3.91,16.7.28-.96-2.42,18.96-3.77,24.31-.54,2.15-.08,3.46-.02,5.58.07,2.65-.99,13.12-1.82,15.95l-3.79,13c-1.31,4.5-3.75,8.76-4.91,13.46-.53,2.15-2.06,3.7-2.75,5.65-3.18,9.1-7.3,16.18-12.72,24.1l-9.94,14.53c-1.15,1.68-2.68,2.8-3.99,4.46l-8.49,10.72c-1.39,1.75-2.51,3.3-4.22,4.74-2.61,2.2-4.49,5.15-6.91,7.61l-13.06,13.26c-10.71,10.88-22.48,20.54-35.3,28.73l-9.97,6.37ZM571.23,229.16c.02-.4.08-.86-.17-1.3-.17-.29-.64-.43-1.03-.5-3.29-9-7.61-17.63-11.56-26.67-2.55-5.85-5.86-10.85-9.07-16.25l-3.37-5.67c-2.4-4.05-6.13-7.61-7.47-11.74l-1.01-3.13c-5.14-15.88-60.27-56.29-78.69-67.56-10.57-6.47-21.18-11.53-32.63-15.9l-14.83-5.66c-24.57-9.38-49.82-15.11-76.16-17.08l-9.99-.75c-10.04-.75-19.69-.4-29.7.12-22.4,1.18-44.1,4.38-65.66,11.1-18.06,5.63-35.37,11.87-52.27,20.07-15.94,7.73-39.98,24.02-53.71,35.13l-6.99,5.66c-10.95,8.86-24.65,23.87-32.82,35.43-1.39,1.97-1.94,4.15-3.55,6.16-3.59,4.51-5.8,10.03-8.95,14.97-8.1,12.73-10.11,18.29-16.04,31.87-3.52,8.06-6.9,15.94-9.63,24.29l-4.75,14.5c-1.81,5.53-3.16,11.16-4.7,16.79l-5.19,19.02c-1.35,4.94-2.55,10.6-4.66,15.15-.58,1.59-.73,5.42-.37,7.09.93,3.28,1.24,8.1,1.76,11.68.51,3.54,1.92,6.11,1.18,10.01-.57,3.02,1.92,6.4,2.07,9.43.2,4.05,1.02,13.24,1.53,17.12,1.53,11.44,6.31,28.48,6.69,36.23.29,5.93,1.49,11.22,3.05,16.89.66,2.41.42,5.11,1.68,7.39,1.79,3.24.26,6.72,1.23,9.97l2.5,8.4c.69,2.31.14,4.26,1.44,6.44,1.27,2.12,1.44,4.72,2.62,7,2.81,5.42,4.63,11.2,8.49,16.06.89,1.12,2.3,1.73,2.75,3.27.38,1.32,1.74,1.88,2.46,2.92l6.85,9.93c4.14,6,8.21,11.99,13.39,17.23,1.33,1.34,3.04,1.77,4.35,3.55,1.01,1.39,9.98,11.8,11.34,13.15l8.48,8.32c-5.67-5.57,12.75,11,7.68,6.72l16.57,13.98c7.26,6.13,8.88,5.58,16.93,10.8,11.19,7.25,22.27,14.08,34.62,19.37l19.22,8.23c10.6,4.54,21.23,7.6,32.45,10.66,15.61,4.26,30.76,6.68,46.85,8.13l7.2.65c4.1.37,7.9.22,12,.58,4.97.44,10.05.26,15.03,0l11.4-.59c2.55-.13,5.11-.44,7.72-.67,34.69-2.97,67.47-12.64,98.76-27.49l10.28-4.88c10.47-4.97,19.64-11.75,29.53-17.8,1.93-1.18,4.09-1.53,5.97-3.03l8.02-6.41,12.88-11.05c-.88.76,10.94-9.65,8.44-7.17l8.11-8.07c3.95-3.93,7.24-8.32,10.84-12.56,1.58-1.87,3.77-2.63,5.14-4.38l13.76-17.55,6.55-9.66c.89-1.31,2.05-2.29,3.06-3.54,4.31-5.38,7.27-11.13,9.97-17.5l2.39-5.65c1.32-3.13,2.43-5.53,2.36-9.07-.05-2.41,2.01-4.88,2.41-7.31.36-2.16-.32-4.22-.1-6.37.34-3.37,2.04-6.37,2.73-9.64l2.39-11.43c1.12-5.34.89-10.6,1.98-16.04l2.54-12.58c1.03-5.09,2.34-9.9,2.98-15.1.39-3.15.93-6.47,1.18-9.5l.68-8.45c.44-5.44,2.35-10.05,2.16-15.74-.08-2.22,2.28-4.38,1.28-7.22-.48-1.38.35-3.61.96-4.8,1.01-1.96.31-3.47.37-5.25.13-3.87-.69-6.95-2.5-10.34-1.36-2.56-1.14-5.89-2.1-8.62l-2.67-7.62c-2.64-7.53-3.4-15.38-5.59-23.14-2.93-10.36-6.1-20.27-10.49-30.11-.41-.91.15-2.11-.79-2.92Z"/>
        <path class="cls-11" d="M565.4,226.19c1.65,3.93-.21,7.56,1.03,7.17.47.4.93.95,1.24,1.79,6.13,16.57,10.62,33.29,13.99,50.78,1.62,8.41,4.25,16.1,4.28,24.94,0,2.65,1.08,5.61.64,8.2l-2.65,15.56c-.57,3.34-.99,15.81-2.56,20.54-.81,2.42-1.76,15.66-3.62,22.46l-1.98,7.24c-1.37,5.02-3.04,9.78-4.43,14.86l-4.52,16.49c-1.2,4.36-.53,8.77-1.11,13.11-.56,4.18-3.68,7.87-4,12.08-.18,2.34,1.14,4.2-.86,6.39-2.24,2.44,1.76,5.94-.1,10.05-6.91,15.25-5.47,8.11-9.08,13.75-1,1.56-3.21,1.9-4.41,3.43-1.67,2.13-2.38,5.65-4.74,7.12-1.8,1.12-3.13,1.67-4.38,3.56-3.14,4.75-5.96,9.82-9.94,13.95-1.95,2.02-5.23,1.84-7.57,2.97s-4.11,2.64-6.41,2.87c.78-2.13,7.32-5.55,8.49-7.1l7.49-9.9,7.52-5.64c3.78-2.84,2.31-4.1,9.52-10.93,6.05-5.73,6.33-6.79,9.79-14.5.41-3.65-.64-8.61,1.11-11.09,2.85-4.02-1.8-4.98-.39-8.83,1.92-5.21,4.29-9.96,5.57-15.4,3.2-13.58,7.05-26.61,10.98-39.95.39-1.32,3.69-16.25,3.83-17.28l3.69-26.63.38-6.26c.23-3.83,1.53-7.82,1.39-11.68-.22-6-2.2-23.47-3.44-29.58-2.48-12.24-5.58-27.46-9.47-36.86-.78.96-.25,1.41-.3,1.8-.05.42-.37.56-.82.61-2.09.23-4.01-8.42-5.86-8.53-2.23-.13.28,4.83-.48,5.97-9.22-.82-.79,7.06-5.37,17.74-4.03,9.4-17.6,1.33-22.6-3.42-1.99-1.88-4.83-3.34-5.42-5.96l25.63-.26-.25-37.93-61.97-.13c-.1-1.84-2.06-2.59-3.39-3.85l-8.32-7.91c-13.76-13.08-29.55-23.12-46.42-32.12-17.61-9.4-36-16.37-55.28-21.5-.87-.23-1.71.07-1.88.57-17.82-16.01-39.59-25.86-64.21-26.27-24.4-.4-47.99,7.95-65.9,25.03.35-.36-.73-.78-1.35-.62-19.82,4.96-38.8,11.62-56.99,21.03-21.87,11.32-41.77,25.44-59.12,42.7-1.05,1.04-1.96,1.76-2,2.96-14.17-.14-28.19,2.79-41.39,8.43-18.75,8.02-33.74,21.9-43.39,39.7-.74,1.37-1.56,2.3-2.08,3.47-.45-.15-.91-1-.72-1.82,6.38-27.42,18.45-59.81,33.32-83.56l7.03-11.23c9.18-14.67,27.36-34.74,40.29-46.43l5.4-4.89,4.22-3.58c8.82-7.48,26.85-19.62,37.16-25.11l9.11-4.85c29.57-15.75,80.41-29.77,113.88-31.15l12.25-.5c4.76-.2,9.48-.58,14.22-.02,4.12.48,8.01.26,12.25.51,29.02,1.68,56.85,8.23,84.11,18.32,11.04,4.09,21.73,7.93,31.89,13.69l5.03,2.86c4.32,2.45,8.66,4.75,12.9,7.4,6.23,3.91,12.07,7.51,18.07,12.09,27.85,21.28,56.42,52.72,71.95,84.42l4.34,8.86c2.57,5.24,4.97,10.56,7.17,15.8ZM101.9,184.36l7.59-7.07c57.12-53.18,139.37-80.05,217.4-76.11,39.44,1.99,78.1,10.91,113.3,28.53l10.56,5.29c27.3,13.67,51.62,32.25,73.22,53.75,2.28,2.27,4.07-1.73,5.45-1.37,2.05.54,6.16,8.91,8.45,6.99,1.36-1.15-5.57-10.01-7.03-14.58-.9-2.82-.67-5.74-2.72-8.5-18.96-25.53-41.64-45.8-68.41-63.25-13.57-8.84-27.78-15.4-42.79-21.42-22.5-9.01-47.81-14.82-71.82-17.9-2.11-.27-3.85-.6-6.04-.59-1.98.02-3.84-1.4-6.12-.48-1.37.55-2.88-.14-4.18-.58-4.02-1.37-8.64.94-12.37.07-4.29-1-7.35-.99-11.69.04-3.62.86-8.01-1.45-11.84-.14-1.49.51-3.2,1.23-4.79.59-2.08-.85-3.68.65-5.42.62-2.24-.04-3.92.26-6.14.54-21.71,2.73-42.9,7.23-63.43,14.64-11.09,4-21.36,8.08-31.66,13.51l-6.63,3.5c-14.36,7.58-39.52,25.95-51.02,37.07l-11.93,11.54-2.6,3.4c-1.46,1.9-8.08,8.18-11.47,13.26-1.44,2.15-5.14,6.57-4.75,8.91s-.64,4.16-1.73,6.04l-6.18,10.66c-.34.58.87,1.68,1.3,1.24l6.04-6.06c.94,1.1,2.5,3.32,3.92,2.86,1.55-1.92,3.56-3.21,5.51-5.02ZM562.23,226.76h-1.2v6.59h1.2v-6.59Z"/>
        <path class="cls-15" d="M568.23,231.15c-.96.95-.35,1.99.15,3.27,6.17,15.58,10.11,31.55,13.84,47.9,1.24,5.42,2.77,10.21,3.52,15.77,4.8,35.69.36,19.63.06,36.04l-.28,14.92c-.04,2.19-.54,4.62-1.08,6.64l-4.18,15.72-4.2,21.43c-2.17,11.05-4.79,21.67-8.56,32.28-.96,2.69.71,4.43,2.37,6.08l-5.33,15.43c-.8,2.32-1.35,3.29-.64,5.89.44,1.6-1.6,4.16-2.15,5.9-1.47,4.67-3.92,8.52-6.4,12.55-3.53,5.74-3.36-.18-8.04,9.91-.81,1.73-1.85,2.51-2.81,3.87-3.96,5.58-7.19,11.41-11.72,16.76-2.77-1.52-5.07-.3-6.86,1.92l-9.38,11.58-6.79,7.52c-2.41,2.67-5.13,3.92-7.73,6.29l-3.43,3.12c-1.9,1.73-11.12,10.28-12.08,11.02l-15.32,11.77c-3.31,2.54-8.06,2.94-12.03,4.2-14.5,4.57-26.31,14.31-39.9,19.55l-20.41,7.86c-19.9,7.66-40.46,11.72-61.73,13.65-3.06.28-5.82.67-8.86.74l-11.92.27c-3.76.08-7.21.13-10.97,0l-13.44-.42c-2.67-.08-5.16-.4-7.85-.64-21.12-1.89-41.3-6.38-61.26-13.57-15.07-5.43-29.28-11.17-42.91-19.55-12.74-7.84-25.46-8.99-29.71-12.3l-15.29-11.92c-2.24-1.75-4.72-4.05-6.7-6.05-4.33-4.37-8.89-7.53-13.63-11.27-2.66-2.09-15.74-17.72-18.41-21.56-1.92-2.76-4.58-2.69-7.16-2.87-5.33-4.39-7.76-11.28-12.09-16.35-2.65-3.11-3.73-7.36-6.66-10.02-1.7-1.54-3.18-2.06-4.35-4.26-1.92-3.6-4.3-6.9-5.74-10.9-.49-1.35-1.27-2.95-1.88-4.18-.99-2,.34-3.55-.22-5.26l-6.08-18.67c1.48-1.93,3.08-3.85,2.09-6.63-3.26-9.08-5.73-18.21-7.64-27.68l-3.71-18.47c-1.44-7.17-3.46-13.99-5.41-21.05-.91-3.29-2.31-15.8-.5-17.34.7,2.59,2.71,5.48,3,8.27-.61.3-.98,1.02-.79,1.9l1.71,8.2c1.36,6.51,1.52,13.03,3.06,19.53,1.44,6.09,3.33,11.91,5.07,17.89l3.37,11.54c1.98,6.77,3.13,13,3.28,20.1.11,4.84,6.23,12.47,4.15,17.1-.35,1.8,2.09,3.77,2.2,5.9-1.92,3.12-1.6,7.17.4,10.29,1.37,2.15,1.9,4.79,3.69,6.63l4.38,4.5c1.31,1.35,3.2,1.84,4.37,3.49,1.37,1.93,2.15,5.19,4.2,6.53,2.3,1.51,3.86,2.51,5.41,4.89,10.1,15.45,6.12,11.93,23.22,18.7.15.22.63.44.83.62-.72.48,5.07,6.67,5.28,6.96,1.87,2.7,10.71,11.73,13.54,14.2l6.99,6.1c1.88,1.64,3.95,2.85,5.91,4.4l7.33,5.81c2.12,1.68,3.94,3.13,6.05,4.86l4.22,3.46c15.52,12.72,38.75,17.91,58.42,23.15,23.23,6.18,46.38,10.49,70.26,11.77l9.83.53c9.05.49,18.09.63,27.28.12l10.26-.56c19.7-1.08,42.86-4.97,62.27-9.49,11.59-2.7,47.99-12.39,56.44-17.9l11.66-7.6,4.5-3.71c2.03-1.68,3.93-2.67,5.84-4.58,1.26-1.27,5.96-4.79,8.29-6.65l12.28-9.85c2.07-1.66,3.47-3.32,5.13-5.28,2.76-3.24,6.06-5.77,8.53-9.32-.79,1.14,6.43-7.04,4.81-6.41.08-.28.51-.55.8-.58,2.29-.23,4.13-1.77,6.41-2.87s5.62-.95,7.57-2.97c3.97-4.13,6.8-9.2,9.94-13.95,1.25-1.89,2.58-2.43,4.38-3.56,2.36-1.47,3.07-4.99,4.74-7.12,1.2-1.53,3.41-1.87,4.41-3.43,3.6-5.65,2.17,1.5,9.08-13.75,1.86-4.11-2.14-7.6.1-10.05,2.01-2.19.68-4.05.86-6.39.32-4.21,3.45-7.91,4-12.08.58-4.34-.09-8.75,1.11-13.11l4.52-16.49c1.39-5.08,3.06-9.84,4.43-14.86l1.98-7.24c1.86-6.8,2.81-20.04,3.62-22.46,1.57-4.73,1.99-17.2,2.56-20.54l2.65-15.56c.44-2.59-.63-5.55-.64-8.2-.02-8.84-2.66-16.52-4.28-24.94-3.37-17.49-7.86-34.21-13.99-50.78-.31-.84-.77-1.39-1.24-1.79.4-1.39.26-2.7.06-4.31l1.74,2.11Z"/>
        <path class="cls-16" d="M512.48,262.08c.46.53.12,1.69.66,2.38,6.93,8.95,10.37,15.12,19.82,21.56,8.45,5.75,24.15,10.4,32.82,2.51.95-.86.54-2.85,2.54-2.38-.08,3.22,1.49,5.67,2.81,8.36.57,1.14-.35,3.71,1.96,3.52.55-.04,1.56-.71,2-.44.59.36.8,1.3.89,2.05l1.78,15.29.62,12.56c.95,19.34-.14,14.73-3.2,32.97-.61,3.64-2.12,6.92-2.49,10.53-.62,5.99-3.67,19.71-5.72,25.11l-7.79,20.5-2.1,5.66c-1.83,4.95-1.83,10.06-3.77,14.92l-5.1,12.79c-.66,1.65.71,3.61-1.12,5.26-.42.38-.45,1.39-.28,1.79.56,1.26,2.42.93,2.63,1.51.57,1.56-3.02,7.92-3.92,8.82-1.81,1.79-5.97,2-7.3,4.51-1.82,3.44-5.03,5.53-7.18,8.42-2.78,3.74-5.1,6.03-9.13,8.5l-28.25,17.29c-23.9,14.62-57.74,31.08-84.33,38.72l-10.68,3.07c-23.44,6.74-48.59,10.41-72.9,11.62-9.95.5-19.42.76-29.33.09l-6.66-.45c-43.76-2.98-82.92-13.04-122.48-31.8-18-8.54-34.7-18.36-51.65-28.74l-18.58-11.38c-2.69-1.65-4.28-4.13-6.02-6.67-1.3-1.89-3.51-2.92-4.89-4.73-1.24-1.62-1.91-3.56-3.51-4.9-3.89-3.25-6.16.53-10.84-12.04,1.35-1.18,2.43-1.16,3.54-2.34-2.17-2.4-1.68-5.28-2.66-7.86l-4.81-12.65c-2.27-5.98-2.94-12.27-5.33-18.35-5.07-12.9-9.81-25.66-12.51-39.33-.85-4.32-.83-8.4-2.69-12.5-.35-.78.14-2.23.69-2.42,3.49,4.31,12.97,16.08,16.91,19.01-.28.06-1,.64-.7,1.43,8.29,22.12,21.29,42.28,38.89,58.04l5.82,5.21c15.34,13.74,31.92,25.67,49.91,35.78l8.18,4.6c36.81,20.68,78.13,31.8,120.33,34.97,3.27.25,5.92.77,9.07.43,2.33-.26,4.43.42,6.66.5,5.33.19,10.62.08,15.87-.15l12.7-.55c43.56-1.9,86.3-14.12,124.05-36.05l4.68-2.72c16.74-9.73,36.88-23.21,51.2-36.12l5.08-4.58c11.69-10.53,20.62-21.31,28.68-34.79.94-1.57,1.69-3,1.9-4.54l9.71-.2.17-12.64c.56.08,1.17-.01,1.51-.29.59-.47.54-1.14.84-1.89,5.03-12.61,8.52-25.52,9.42-39.13.41-6.19-1.1-16.83-7.89-19.68-6.06-2.55-14.28-.82-20.03,1.45-7.62,3.01-14.15,7.81-19.15,14.39-2.71,3.56-5.81,6.66-7.88,10.75-2.6,2.79-4.76,5.8-6.22,9.16l-46.98-.11.18-37.71,83.56-.14-.37-33.75-82.96-.05-.4-32.04,51.72.1Z"/>
        <path class="cls-15" d="M134.99,403.57c-.38,1.66.92,2.3,2.13,3.38,15.27,13.54,31.71,25.15,49.88,34.64,22.85,11.92,46.67,20.44,72.01,25.05,1.72.31,3.02.82,4.44.25,28.78,22.57,66.72,28.79,100.62,13.25,11.25-5.16,21.05-12.39,29.03-22.14,1.91.53,3.52-.19,5.54-.91,18.92-6.71,36.72-15.16,53.71-25.99,10.04-6.4,19.09-13.41,28.17-21.01,2.26-1.89,4.85-3.48,5.48-6.22l61.21-.05c-.21,1.54-.96,2.97-1.9,4.54-8.06,13.48-16.99,24.26-28.68,34.79l-5.08,4.58c-14.32,12.91-34.46,26.4-51.2,36.12l-4.68,2.72c-37.75,21.93-80.48,34.16-124.05,36.05l-12.7.55c-5.25.23-10.54.34-15.87.15-2.23-.08-4.33-.76-6.66-.5-3.14.35-5.8-.18-9.07-.43-42.2-3.16-83.52-14.29-120.33-34.97l-8.18-4.6c-17.99-10.11-34.57-22.04-49.91-35.78l-5.82-5.21c-17.59-15.75-30.6-35.92-38.89-58.04-.3-.79.42-1.37.7-1.43,15.15,11.29,32.01,19.32,51.37,20.74,6.32.46,12.62,1.06,18.69.43Z"/>
        <path class="cls-11" d="M513.43,506.08c1.62-.63-5.59,7.55-4.81,6.41-2.47,3.55-5.77,6.08-8.53,9.32-1.67,1.95-3.06,3.62-5.13,5.28l-12.28,9.85c-2.33,1.87-7.03,5.39-8.29,6.65-1.91,1.92-3.81,2.91-5.84,4.58l-4.5,3.71-11.66,7.6c-8.45,5.51-44.85,15.19-56.44,17.9-19.41,4.53-42.57,8.41-62.27,9.49l-10.26.56c-9.19.51-18.23.36-27.28-.12l-9.83-.53c-23.87-1.28-47.03-5.59-70.26-11.77-19.67-5.23-42.9-10.43-58.42-23.15l-4.22-3.46c-2.11-1.73-3.93-3.18-6.05-4.86l-7.33-5.81c-1.96-1.55-4.03-2.75-5.91-4.4l-6.99-6.1c-2.83-2.47-11.67-11.5-13.54-14.2-.21-.3-6-6.48-5.28-6.96,10.27,8.6,28.41,18.69,40.93,24.7l7.82,3.76c43.09,20.71,85.12,32.43,132.87,35.48,4.67.3,8.9-.05,13.44.47,4.77.55,9.55.18,14.34,0l14.04-.51c59.31-2.14,133.71-29.25,181.69-63.93Z"/>
      </g>
      <g>
        <path class="cls-1" d="M128.4,223.78c11.42.11,22.85,2.47,33.57,6.48,34.13,12.75,56.7,44.59,57.9,80.27,1.23,36.28-19.35,69.4-52.69,84.52-10.27,4.66-21.13,7.38-32.18,8.52-6.06.63-12.36.03-18.69-.43-19.37-1.42-36.23-9.45-51.37-20.74-3.94-2.94-13.42-14.7-16.91-19.01-2.11-2.6-2.71-6.69-5.29-9.05.59-2.12-2.79-4.36-2.96-6.04-.29-2.79-2.3-5.68-3-8.27-5.91-21.89-4.51-43.92,4.76-64.64.52-1.16,1.34-2.1,2.08-3.47,9.65-17.8,24.64-31.69,43.39-39.7,13.2-5.64,27.22-8.57,41.39-8.43ZM179.66,313.66c0-29.31-23.78-53.07-53.12-53.07s-53.12,23.76-53.12,53.07,23.78,53.07,53.12,53.07,53.12-23.76,53.12-53.07Z"/>
        <g>
          <g>
            <polygon class="cls-1" points="493.26 223.77 555.23 223.9 555.48 261.83 529.85 262.09 512.48 262.08 460.75 261.98 461.15 294.02 544.12 294.07 544.49 327.82 460.93 327.96 460.75 365.66 507.72 365.77 557.11 366.03 557.12 391.01 556.95 403.64 547.23 403.84 486.02 403.88 421.03 403.81 420.8 224.04 493.26 223.77"/>
            <path class="cls-13" d="M393.12,458.01c-7.99,9.75-17.78,16.99-29.03,22.14-33.91,15.54-71.84,9.32-100.62-13.25l-6.85-6.98,25.25-25.13c11.28,11.37,25.38,17.91,40.93,18.71,15.42.58,29.85-5.12,40.15-16.41,6.05-7.43,8.25-16.44,8.12-25.92l37.39.05c.09,17.42-5.72,33.13-15.34,46.79Z"/>
          </g>
          <g>
            <path class="cls-13" d="M377.97,158.95c.34.84,1.18,1.56,1.14,2.33l-24.79,25.55c-19.63-18.99-46.27-23.47-70.23-11.45-8.92,5.21-15.75,12.72-18.99,22.51-1.78,6.11-1.99,12.11-1.6,18.88l-39.37-.11c-.44-22.3,7.73-43.68,23.74-58.95,17.91-17.08,41.5-25.43,65.9-25.03,24.62.4,46.39,10.26,64.21,26.27Z"/>
            <path class="cls-1" d="M264.8,403.64l-40.11.16.48-169.09-.28-10.56h39.84c2.11,7.51,5.27,14.01,10.75,19.52l92.65,93.36.18-112.99,39.98-.08-.41,169.29.25,10.56h-38.03c-1.88-6.33-4.12-12.27-8.95-17.12l-96.14-96.52-.2,113.46Z"/>
          </g>
        </g>
      </g>
      <path class="cls-12" d="M557.12,391.01v-24.98s-49.4-.25-49.4-.25c1.45-3.36,3.61-6.37,6.22-9.16,2.08-4.09,5.18-7.19,7.88-10.75,4.99-6.58,11.53-11.38,19.15-14.39,5.75-2.27,13.97-4,20.03-1.45,6.79,2.85,8.3,13.49,7.89,19.68-.9,13.61-4.39,26.51-9.42,39.13-.3.75-.25,1.41-.84,1.89-.34.27-.95.37-1.51.29Z"/>
      <g>
        <path d="M559.98,231.11v-5.21h-1.8v-1.08h4.82v1.08h-1.85v5.21h-1.17Z"/>
        <path d="M564.15,231.11v-6.29h1.11l2.29,3.73h-.65s2.32-3.73,2.32-3.73h1.05v6.29h-1.16v-2.36c0-.54.01-1.03.04-1.46s.07-.86.14-1.29l.14.39-1.95,3.01h-.59l-1.89-2.98.13-.41c.07.4.11.81.14,1.24s.04.92.04,1.51v2.36h-1.16Z"/>
      </g>
    </g>
  </g>
</svg>